<?xml version="1.0" encoding="UTF-8" standalone="no"?>
<!-- Created with Inkscape (http://www.inkscape.org/) -->

<svg
   width="1143.0151"
   height="1326.1344"
   viewBox="0 0 302.42275 350.87306"
   version="1.1"
   id="svg5"
   xml:space="preserve"
   xmlns="http://www.w3.org/2000/svg"
   xmlns:svg="http://www.w3.org/2000/svg"><defs
     id="defs2" /><g
     id="layer1"
     transform="translate(386.41184,20130.312)"><path
       style="fill:#45343f;stroke:none;stroke-width:0.264583"
       d="m -268.14308,-20008.581 0.26458,2.116 h -0.26458 l -1.85208,-2.381 h -0.26459 l 4.23334,9.26 h 0.26458 l -0.52414,-18.519 0.78872,-5.028 h 0.26459 l 0.20928,7.408 0.58447,2.91 v 0.265 0.264 l 0.26458,3.705 2.64583,0.529 -0.26458,1.058 0.52917,-0.794 0.79375,0.53 v 0.264 l -1.05834,1.323 v 0.265 l 0.79375,0.529 0.52917,-2.117 c 0.39899,1.362 0.0794,1.963 -0.52917,3.175 h 1.32292 v 1.058 c 1.29567,0.421 2.09286,0.841 2.64583,2.117 h 0.26459 l 0.26458,-1.058 h 0.52917 l 0.26458,0.264 -0.26458,0.794 0.79375,-0.264 c 0.0823,1.085 0.37041,1.582 1.32291,2.116 l -0.26458,0.794 0.52917,1.852 0.26458,-0.794 h 2.11667 v 1.059 h -2.64584 v 0.264 l 2.91042,-0.264 0.52917,1.058 -0.79375,0.265 v 0.264 l 6.35,-0.529 c 0.28046,1.759 1.83621,1.759 2.11666,0 h 2.11667 v -1.323 l -1.32292,-0.794 2.11667,-1.058 1.5875,-2.117 h -2.64583 l 0.26458,-2.116 h 2.11667 v -2.117 h 1.05833 v -0.265 l -1.05833,-1.058 h 4.23333 v 0.794 h -2.11667 v 0.529 l 2.64584,0.265 -0.52917,-0.794 2.11667,-0.265 -0.52917,-1.323 h 2.64583 l 0.79375,0.794 c -0.63552,0.893 -1.15993,2.297 -0.26458,3.175 v 0.265 h -1.05833 l -0.52917,6.879 h 0.26458 l 0.26459,-0.529 0.52916,3.439 0.79375,1.323 1.85209,1.323 1.05833,-0.265 0.26458,0.794 h 0.26459 l 0.26458,-0.794 1.5875,0.265 -0.26458,1.058 1.05833,-0.264 v 1.852 h 0.26458 l 0.26459,-1.588 h 0.26458 l 0.26458,1.323 0.79375,-0.529 v 0.794 l 2.11667,-0.529 -0.52917,0.793 1.32292,-0.793 -1.05833,-1.059 c 0.82841,0.273 2.8448,0.06 1.32291,-0.264 v -0.265 l 3.70417,-0.264 v 0.264 l -0.79375,0.794 c 1.27794,-0.38 2.15688,-1.488 3.43958,-1.913 1.73647,-0.576 3.55706,-0.358 5.29167,-1.164 3.9751,-1.848 5.43931,-3.837 10.05417,-2.744 l 0.26458,-1.323 1.05833,-1.058 c -4.77387,-2.023 -7.4414,1.982 -11.64166,2.91 l 0.26458,0.794 -1.85208,1.323 1.05833,-1.852 -1.05833,0.794 -0.26459,-0.794 c -1.63459,0.02 -4.98051,-0.698 -6.08541,-1.852 l -0.79375,0.264 -1.85209,-1.852 v -1.058 h -0.26458 l -0.26458,0.794 v -1.059 h -1.5875 l 1.85208,2.382 c -1.67878,-0.74 -3.43879,-2.593 -4.23333,-4.234 h -1.32292 c -0.68315,1.1 -1.6301,1.655 -2.91042,1.852 -1.13876,1.065 -2.24393,1.295 -3.70416,0.794 l 1.32291,-3.704 1.85209,-0.265 c 0.576,2.048 2.48232,-0.308 2.91041,-1.323 l -0.79375,-0.264 v -0.529 c 0.65511,-0.347 0.83,-0.629 0,-0.794 v -0.265 h 1.05834 l -0.79375,-1.323 1.5875,0.265 0.26458,-0.794 0.52917,0.529 h 0.26458 l 5.29167,-4.762 1.5875,0.529 0.79375,-4.762 h 1.32291 c -0.43762,-3.256 1.36525,-4.923 2.38364,-7.674 0.93821,-2.533 0.86069,-5.079 1.32053,-7.672 h -0.26458 l -0.52917,0.529 c -0.14049,-0.531 -0.0825,-2.861 0.52917,-1.588 h 0.26458 c 0,-0.749 0.30877,-2.599 1.32292,-1.852 l 0.26458,-0.793 h -1.5875 v -0.265 c 2.47491,-0.624 1.95712,2.136 2.64583,2.117 l -0.52916,4.498 h 0.26458 v -2.117 h 0.52917 v 2.117 l 1.05833,-0.53 0.26458,1.059 h -1.05833 v 0.794 l 3.175,-1.588 2.11667,-1.852 v 1.058 l 4.23333,-1.058 v -0.265 l -1.32292,-0.793 1.32292,-1.059 1.05833,0.265 0.52917,-2.381 0.79375,0.264 0.52917,-1.323 h 0.26458 l 0.52917,1.323 -0.79375,0.794 h 1.05833 l -0.52917,0.794 v 0.264 l 1.5875,0.794 -0.79375,-1.058 c 0.66675,0.428 1.44172,1.502 2.11667,0.793 h 0.26459 0.26458 c 0.24765,1.238 5.9518,-0.788 5.55625,0.794 l 1.32292,-0.264 c -1.98438,-2.15 -4.91702,-1.141 -7.40834,-1.852 l 1.32292,-0.794 1.05833,-0.794 1.85209,-1.323 v -0.264 l -0.52917,-0.265 c 0.67786,-0.308 1.78567,-1.371 2.56169,-1.012 0.97711,0.452 0.95753,3.426 1.96401,4.403 4.26825,4.141 8.82703,-0.06 9.23263,-4.714 l 5.29167,3.44 -3.175,3.175 0.52917,1.058 h 0.26458 v -0.794 h 0.26458 v 0.794 l 3.43959,-2.646 v -0.264 l -0.52917,-0.794 h 1.85208 c -1.2274,-3.114 -3.56579,-5.633 -6.87916,-6.615 0.64214,-1.394 2.33177,-2.011 3.43958,-0.794 l 3.96875,2.646 c -0.26115,-3.596 -4.92125,-5.428 -7.67292,-6.879 h -0.26458 l -6.35,-0.32 -6.61458,0.585 v -0.265 l 4.23333,-1.058 v -0.265 h -0.79375 v -0.264 l 7.67292,-1.059 0.52916,1.323 0.52917,0.265 1.5875,0.264 1.85208,-1.323 c 0,0.952 1.3724,1.005 1.5875,0 l 2.64584,0.794 v -1.058 l 3.43958,-1.058 v -0.265 h -1.05833 v -1.058 h 0.26458 c 0.5924,0.615 0.95329,0.08 1.32292,-0.53 l -1.05834,-0.264 v -0.265 h 1.05834 c -0.12621,-1.987 -0.37518,-2.358 0.79375,-3.968 -1.30652,0.08 -2.38284,-0.436 -2.38125,-1.853 l 0.26458,0.794 c 1.11945,-0.344 1.23772,-1.106 0,-1.323 v -0.264 l 1.32292,-0.265 v -1.587 h 0.79375 v -2.117 h -0.26459 v 1.058 h -0.52916 v -1.587 c 1.18877,-0.133 1.80525,-0.538 2.38125,-1.588 l -2.38125,-0.529 0.79375,0.265 2.11666,-2.382 v 1.588 l 1.32292,-0.265 -0.26458,-1.058 1.05833,0.265 v 0.264 c 2.49661,1.228 4.24286,7.206 3.70417,9.79 1.2229,2.475 0.26431,6.583 0.17356,9.26 -0.0484,1.43 -0.43974,2.582 0.62019,3.704 l -0.79375,0.265 0.79375,4.233 v 4.763 h 0.26458 l 0.52917,-3.175 7.40833,-3.175 v -0.265 l -7.9375,1.852 c 3.41127,-14.321 4.22566,-29.382 1.96056,-43.921 -0.70564,-4.528 -1.22026,-10.412 -3.24247,-14.552 -1.84944,-3.786 -4.97602,-7.103 -7.53692,-10.319 -3.67585,-4.617 -7.99677,-9.799 -12.90082,-13.18 -2.86014,-1.971 -6.20157,-2.79 -9.21305,-4.418 -3.07578,-1.662 -6.12167,-3.395 -9.54855,-4.286 -6.35635,-1.652 -13.09423,-1.599 -19.57917,-1.158 -1.80525,0.123 -3.48827,-0.262 -5.29167,0.119 -2.80537,0.593 -5.23187,1.894 -7.9375,2.699 -2.10687,0.627 -4.24841,0.634 -6.35,1.426 -3.16097,1.191 -5.63033,3.073 -8.46666,4.795 -2.36908,1.438 -4.86886,2.143 -7.14375,3.846 -6.22565,4.661 -12.20576,11.882 -15.96655,18.648 -5.03502,9.058 -6.13383,20.252 -6.53335,30.403 -0.14949,3.804 -0.33894,8.17 0.35692,11.907 0.92789,4.98 1.83303,9.913 2.97021,14.82 0.26908,1.16 1.3044,3.904 0.22781,4.879 -0.74057,0.67 -1.54755,-0.394 -2.02221,-0.869 -1.38801,-1.392 -3.42159,-2.722 -5.49117,-2.366 -2.98635,0.515 -3.00222,3.664 -3.3274,6.025 -0.87815,6.376 1.89125,12.69 3.33772,18.786 0.5633,2.373 1.46632,6.347 4.4876,6.35 m 112.97709,-55.827 -0.26459,0.793 0.26459,-0.793 m -5.02709,1.411 0.0881,0.09 c -0.13044,0.04 -0.29263,-0.09 -0.0881,-0.09 m 4.7625,1.499 0.26459,0.265 -0.26459,-0.265 m -7.40833,6.174 0.0881,0.09 c -0.13044,0.04 -0.29263,-0.09 -0.0881,-0.09 m 0.79375,0.176 0.52917,0.529 v 0.265 1.058 l -0.52917,-1.852 m 1.85208,1.587 -0.26458,0.53 h 0.52917 l -0.26459,-0.53 m -2.38125,4.851 0.0881,0.09 c -0.13044,0.04 -0.29263,-0.09 -0.0881,-0.09 m -1.32291,0.441 -0.26459,0.265 0.26459,-0.265 m -7.9375,0.794 0.52916,0.529 v 0.265 c -0.59558,-0.125 -0.82497,-0.228 -0.52916,-0.794 m 6.35,0 v 0.529 h -0.52917 v -0.529 h 0.52917 m 3.175,0 0.26458,0.264 -0.26458,-0.264 m 0.52916,0 0.26459,0.264 -0.26459,-0.264 m -12.43541,0.264 0.79375,0.53 -0.79375,-0.53 m 5.99731,0.177 -0.0884,0.176 0.0884,-0.176 m 4.05685,0.353 v 0.264 l 1.05834,-0.264 h -1.05834 m -12.43541,0 v 0.264 h 1.05833 l -1.05833,-0.264 m -5.29167,0.264 v 0.265 h -0.79375 l 0.79375,-0.265 m 19.57917,0 0.26458,0.794 -0.26458,-0.794 m -3.175,0.265 v 0.264 l 1.05833,0.265 -1.05833,-0.529 m -0.79375,0.264 0.26458,0.265 -0.26458,-0.265 m 2.11666,0 0.26459,0.265 -0.26459,-0.265 m -16.66875,0.265 v 0.265 h 1.05834 l -1.05834,-0.265 m 10.05417,2.91 -0.26458,0.265 0.26458,-0.265 m -2.91042,1.059 v 0.264 c -1.66714,0.564 -3.85921,0.766 -5.55625,0.265 1.33774,-2.105 3.66713,-0.998 5.55625,-0.529 m 2.38125,-0.265 v 0.529 h -0.52916 v -0.529 h 0.52916 m -1.5875,0.265 v 0.529 l -0.52916,-0.529 h 0.52916 m 0.52917,0 -0.26458,0.264 0.26458,-0.264 m 3.96875,0.529 0.26458,0.264 -0.26458,-0.264 m -3.43958,0.264 v 0.53 h -0.52917 v -0.53 h 0.52917 m 1.05833,0.265 0.26458,0.265 -0.26458,-0.265 m -5.82083,1.852 v 2.911 c -1.46315,-0.548 -1.41764,-1.511 -1.32292,-2.911 h 1.32292 m -1.85209,0.794 v 0.529 h -0.52916 l 0.52916,-0.529 m -75.14167,0.529 v 1.588 h -0.26458 l 0.26458,-1.588 m 102.92292,0.794 -0.26458,0.264 0.26458,-0.264 m -123.56042,0.264 -0.26458,0.265 0.26458,-0.265 m 130.70417,2.117 1.32292,-0.794 0.26458,3.44 0.79375,0.264 -0.52916,0.794 c 2.75801,-1.924 0.44714,-8.166 -1.85209,-3.704 m -110.86042,-1.587 v 0.529 l -0.52916,-0.529 h 0.52916 m 112.6244,0.705 -0.0884,0.176 0.0884,-0.176 m -112.88898,0.09 -0.52917,0.529 v -0.529 h 0.52917 m 0.79375,0 -0.26458,1.323 -1.05834,-0.264 0.52917,1.587 -0.79375,0.265 c 0.0183,-1.546 0.55086,-1.894 1.5875,-2.911 m -9.87769,0.971 -0.0884,0.176 0.0884,-0.176 m 54.85686,0.352 -0.26459,1.059 h -0.52916 l -0.26459,-0.265 v -0.529 l 1.05834,-0.265 m 4.49791,0.265 -0.26458,0.264 0.26458,-0.264 m -48.68333,0.264 0.52917,0.265 -1.32292,3.175 h -0.26458 l 1.05833,-3.44 m 21.16667,1.323 h -1.5875 l 0.79375,0.529 c -0.54055,1.431 -1.72932,1.81 -3.175,1.853 v -0.265 l 2.11666,-1.852 -0.26458,-1.323 0.26458,-0.265 1.85209,1.323 m 38.1881,-0.882 0.0884,0.177 -0.0884,-0.177 m -69.9381,0.09 -0.26459,0.264 0.26459,-0.264 m 30.60356,0.352 0.17621,0.09 -0.17621,-0.09 m 67.02769,-0.09 -0.26458,0.265 0.26458,-0.265 m -30.42709,0.265 -0.26458,0.264 0.26458,-0.264 m -67.20416,0.264 -0.26459,1.323 h -0.26458 l 0.52917,-1.323 m 8.73125,0 v 1.588 h -0.26459 l 0.26459,-1.588 m 5.82083,0 1.05833,0.529 v 1.588 l -1.32291,-0.265 0.26458,-1.852 m 55.29792,0 0.26458,0.265 -0.26458,-0.265 m -11.1125,0.265 v 0.529 h -0.52917 v -0.529 h 0.52917 m -26.19375,0.794 -0.79375,-0.53 0.79375,0.53 m -14.02292,-0.265 2.64583,3.175 h -1.05833 l 0.26458,-0.794 h -1.32291 v -0.264 l 0.52916,-0.529 -1.05833,0.529 h -0.26458 l -0.52917,-0.794 0.79375,-1.323 m 52.3875,0 -0.26458,0.794 0.26458,-0.794 m -55.82708,0.265 0.26458,0.264 -0.26458,-0.264 m 14.99314,0.09 0.17621,0.09 -0.17621,-0.09 m 45.86103,-0.09 0.26458,0.264 -0.26458,-0.264 m 12.96458,0.793 v 0.265 c 1.25783,0.309 2.67494,0.69 3.175,-0.794 h 0.79375 l -3.96875,0.529 m -70.11459,-0.264 -0.26458,0.529 h 0.52917 l -0.26459,-0.529 m 39.6875,0.353 c 0.20453,0 0.0423,0.131 -0.0881,0.09 l 0.0881,-0.09 m 17.10982,0 0.17621,0.09 -0.17621,-0.09 m 17.4625,0 0.17621,0.09 -0.17621,-0.09 m -16.84523,0.176 -1.32292,0.794 c 1.34938,3.454 7.0067,4.665 10.31875,5.291 -1.24936,-2.386 -5.13,-3.347 -7.67291,-3.704 l 0.26458,-0.529 -0.79375,-0.265 0.26458,-0.793 -1.05833,-0.794 m 0.79375,0 0.26458,0.265 -0.26458,-0.265 m 1.05833,1.587 -0.26458,-0.793 0.52917,0.793 h 1.05833 v -1.587 c -0.86096,0.09 -2.32146,0.623 -1.32292,1.587 m 43.92084,-1.587 v 2.117 h 0.26458 l -0.26458,-2.117 m -54.23959,0.529 0.26458,0.265 -0.26458,-0.265 m 2.11667,0 0.26458,0.265 -0.26458,-0.265 m 10.05417,0 0.52916,1.058 0.79375,-0.264 c 1.38033,1.969 5.85814,2.099 7.67292,0.794 l 1.05833,0.793 v -0.793 l -10.05416,-1.588 m -9.08394,0.617 0.17621,0.09 -0.17621,-0.09 m 9.08394,0.177 v 0.794 h 0.26458 l -0.26458,-0.794 m -65.61667,3.704 h -0.26459 l -2.11666,-3.175 c 1.76027,0.46 2.36035,1.403 2.38125,3.175 m 64.20564,-3.087 0.17621,0.09 -0.17621,-0.09 m -49.38898,0.265 c 0.20453,0 0.0423,0.132 -0.0881,0.09 l 0.0881,-0.09 m -16.40416,0.176 0.26458,0.265 -0.26458,-0.265 m 22.225,0.529 -0.26459,0.265 0.26459,-0.265 m 43.65625,0.53 -0.26458,0.264 0.26458,-0.264 m 7.14375,2.381 v 0.264 l 2.91042,0.265 c -0.86995,-0.811 -1.79362,-0.843 -2.91042,-0.529 m -87.75356,5.468 0.0884,0.176 -0.0884,-0.176 m 2.29314,6.703 -0.26458,0.264 0.26458,-0.264 m 47.625,0.617 c 0.20452,0 0.0423,0.132 -0.0881,0.09 l 0.0881,-0.09 m -47.625,0.441 v 0.794 h -0.26458 l 0.26458,-0.794 m 1.85208,1.852 v 0.265 h -0.79375 l 0.79375,-0.265 m 1.5875,0.265 -0.26458,0.264 0.26458,-0.264 m 40.74584,0 -0.26459,0.264 0.26459,-0.264 m -1.32292,0.529 v 0.529 h -0.79375 v -0.529 h 0.79375 m -43.65625,0.264 0.26458,0.265 -0.26458,-0.265 m 1.05833,0 v 1.852 l 0.52917,-1.852 h -0.52917 m -4.49791,1.323 0.26458,1.059 h -0.26458 v -1.059 m 8.46666,0 0.79375,0.529 v 1.059 l -0.79375,0.529 h -0.26458 l 0.26458,-2.117 m 2.38125,1.059 -0.26458,1.058 c 0.83185,0.673 0.8845,1.748 0,2.381 l -0.26458,-3.439 h 0.52916 m 34.13125,0 v 1.058 h 0.26459 l -0.26459,-1.058 m 1.14644,0.441 0.0884,0.176 -0.0884,-0.176 m -16.75685,0.352 -0.26459,0.265 0.26459,-0.265 m 12.7,0 -0.26459,0.265 0.26459,-0.265 m -41.01042,1.588 -0.79375,-0.265 0.79375,0.265 m 9.26042,-0.529 -0.26459,0.264 0.26459,-0.264 m 31.22083,0 v 0.793 h -0.26458 l 0.26458,-0.793 m -1.85208,0.529 -0.26459,0.529 h -0.26458 l -0.26458,-0.529 h 0.79375 m 1.05833,0.529 1.05833,0.265 v 0.264 l -1.32291,-0.264 0.26458,-0.265 m -28.31042,0.265 -0.26458,0.264 0.26458,-0.264 m 24.25356,0.09 0.17622,0.09 -0.17622,-0.09 m 1.94019,0 0.0881,0.09 c -0.13043,0.04 -0.29262,-0.09 -0.0881,-0.09 m 1.32292,0 0.0881,0.09 c -0.13044,0.04 -0.29263,-0.09 -0.0881,-0.09 m -8.37856,0.882 0.0884,0.176 -0.0884,-0.176 m 2.02856,-0.177 0.26458,0.265 -0.26458,-0.265 m 6.61458,0.794 0.79375,1.058 1.05834,-0.264 v -0.265 l -1.85209,-0.529 m -28.83958,0.265 v 0.264 l 1.05833,0.265 -1.05833,-0.529 m -0.52917,0.264 -0.26458,0.794 0.79375,1.588 1.05833,-0.265 h 0.26459 l 0.52916,0.529 -0.26458,-1.323 -0.52917,0.529 h -0.26458 v -1.058 l -1.32292,-0.794 m -2.91041,0.529 0.26458,0.265 -0.26458,-0.265 m 38.1,0.53 -0.79375,-0.53 0.79375,0.53 m -4.7625,-0.265 0.52916,0.529 v -0.529 h -0.52916 m -24.60625,1.058 -0.26459,0.265 0.26459,-0.265 m 32.27916,0.353 c 0.20453,0 0.0423,0.132 -0.0881,0.09 l 0.0881,-0.09 m -12.7,0.706 -0.26458,1.587 0.26458,-1.587 m -23.01875,0.264 -0.26458,0.794 0.26458,-0.794 m -0.97022,0.441 0.0884,0.177 -0.0884,-0.177 m 103.09939,-0.176 v 1.852 h 0.26459 l -0.26459,-1.852 m -94.19167,0.264 0.26459,0.53 h -0.52917 l 0.26458,-0.53 m -8.55477,0.618 0.17621,0.09 -0.17621,-0.09 m 6.17352,-0.09 v 0.793 h 0.26459 c 0.77099,-0.552 1.20359,-0.39 1.85208,0.265 h -2.91042 l 0.79375,-1.058 m 33.3375,0.529 -0.26458,0.264 0.26458,-0.264 m 19.05,0.09 c 0.20453,0 0.0423,0.132 -0.0881,0.09 l 0.0881,-0.09 m -56.62083,0.176 c 0.17304,0.808 0.53102,0.777 1.32292,0.794 l -1.32292,-0.794 m 22.225,0 -0.26458,2.382 h 0.26458 v -2.382 m 10.05417,0.53 v 0.264 h -1.85209 l 1.85209,-0.264 m -8.81936,0.705 -0.0884,0.176 0.0884,-0.176 m -24.07708,0.176 0.17621,0.09 -0.17621,-0.09 m 5.90894,-0.09 v 2.117 l -1.05834,0.529 0.79375,0.265 1.32292,-0.794 v -2.117 h -1.05833 m 3.175,1.059 v 1.058 h 2.11666 v -1.058 h -2.11666 m 14.2875,0.264 v 0.794 h 0.26458 l -0.26458,-0.794 m 30.69166,0.529 v 0.265 l 3.96875,0.265 v -0.265 l -0.26458,-0.529 -3.70417,0.264 m -30.1625,0 0.26459,0.265 -0.26459,-0.265 m 1.5875,0 -0.26458,0.265 0.26458,-0.265 m -3.175,0.794 v 1.058 h 0.26459 l -0.26459,-1.058 m 5.55625,0.882 0.0881,0.09 c -0.13043,0.04 -0.29262,-0.09 -0.0881,-0.09 m -25.22352,0.794 0.17621,0.09 -0.17621,-0.09 m 2.73394,0.176 v 0.794 l 0.52917,-0.265 v -0.264 l -0.52917,-0.265 m 1.41102,0.177 0.0884,0.176 -0.0884,-0.176 m -3.52769,0.352 0.26459,0.265 -0.26459,-0.265 m 26.9875,0.53 v 0.793 h 0.26459 l -0.26459,-0.793 m -27.51666,0.529 0.26458,0.264 -0.26458,-0.264 m 0.70564,0.352 0.17621,0.09 -0.17621,-0.09 m 3.6158,0.09 0.0884,0.176 -0.0884,-0.176 m 25.31189,1.146 h 1.32292 l -1.5875,0.265 -0.52917,1.587 -1.5875,-0.264 v 0.264 l 0.26458,1.059 -1.5875,-0.794 -2.38125,1.058 1.05834,1.059 h -1.32292 l 0.79375,1.587 -1.05833,-0.529 -0.26459,0.264 1.05834,1.588 -0.79375,-0.265 -0.79375,0.794 0.52916,1.058 0.79375,-0.529 v 1.059 l 1.5875,-1.588 0.79375,0.265 3.175,-0.794 -0.79375,-1.058 1.05834,-0.265 -0.79375,-0.265 v -0.264 c 3.23718,-0.04 2.52809,-3.728 2.64583,-6.086 l -1.5875,0.794 m -29.45685,-0.441 0.17621,0.09 -0.17621,-0.09 m 1.6756,0.177 0.26458,0.264 -0.26458,-0.264 m 29.63333,0.529 0.26459,0.264 -0.26459,-0.264 m -30.95625,0.264 0.52917,1.323 -0.52917,-1.323 m 30.95625,0.265 0.26459,0.265 -0.26459,-0.265 m 64.82292,1.058 v 1.059 h 0.26459 l -0.26459,-1.059 m -94.54435,0.353 0.17621,0.09 -0.17621,-0.09 m 20.46102,0.706 0.79375,0.529 -0.79375,-0.529 m 9.26041,0 0.26459,0.264 -0.26459,-0.264 m -5.55625,0.793 v 0.265 h -0.79375 l 0.79375,-0.265 m 5.02709,0 0.52916,0.53 v -0.53 h -0.52916 m -0.79375,0.265 -0.26459,0.265 0.26459,-0.265 m -2.91042,0.265 v 0.529 h -0.52917 l 0.52917,-0.529 m -6.08542,0.529 0.26459,0.264 -0.26459,-0.264 m 4.23334,0 -0.79375,0.529 v -0.265 l 0.79375,-0.264 m 4.7625,0.09 0.0881,0.09 c -0.13044,0.04 -0.29263,-0.09 -0.0881,-0.09 m -30.42709,0.176 v 0.794 h 0.26459 l -0.26459,-0.794 m 21.96042,1.059 v 0.529 h 0.79375 v -0.529 h -0.79375 m 6.08542,0 -0.26459,0.264 0.26459,-0.264 m 1.23481,0.352 0.17621,0.09 -0.17621,-0.09 m -1.23481,0.177 -0.79375,0.529 v -0.265 l 0.79375,-0.264 m -6.61459,1.323 0.79375,-0.794 -0.79375,0.794 m 22.57769,-0.618 0.0884,0.177 -0.0884,-0.177 m -20.46102,0.09 v 0.793 h -0.26458 l 0.26458,-0.793 m 1.32292,0.264 v 0.529 h -0.52917 v -0.529 h 0.52917 m -4.23334,0.794 c 0.69983,0.712 1.23138,0.848 1.85209,0 h -1.85209 m -18.43272,0.441 0.0884,0.176 -0.0884,-0.176 m 20.54939,0.09 0.26458,0.265 -0.26458,-0.265 m -34.13125,0.265 0.26458,0.264 -0.26458,-0.264 m 49.2125,1.587 0.26458,0.265 -0.26458,-0.265 m -12.96458,1.323 v 1.058 l -0.79375,-0.529 -0.26459,0.794 -1.32291,-0.794 h -0.26459 c -0.87312,0.855 -1.85367,2.136 -3.175,1.852 -1.41657,1.093 -2.11164,2.183 -2.38125,3.969 l 0.52917,0.794 7.40833,0.529 1.05834,-2.117 c 5.09984,3.068 14.88625,3.094 20.6375,1.659 2.32145,-0.579 4.02854,-0.671 5.82083,-2.452 h 0.26458 c 1.9304,2.986 6.46722,0.128 9.52501,0.793 -0.4498,-2.756 -5.44751,-1.414 -7.40834,-1.058 v 1.058 h -0.26458 v -1.323 h -0.26459 v 1.323 l -0.79375,-0.264 0.52917,-1.323 -5.29167,0.529 0.26459,0.529 c -1.57639,0 -3.27343,0.202 -4.23334,1.588 l -1.32291,-0.53 c 0,1.475 -1.61846,-0.441 -1.5875,-1.587 h -0.26459 v 1.058 h -0.26458 v -0.529 h -0.26458 l 0.52916,0.794 v 0.264 l -1.85208,-0.264 v 0.794 h -0.26458 l -1.85209,-0.53 0.52917,-0.793 -0.79375,-0.265 -0.52917,-1.058 -0.26458,0.794 c -0.69823,-0.637 -1.44965,-1.132 -2.11667,-0.265 h -0.26458 l -0.79375,-1.058 h -0.26458 -0.26459 v 0.529 l -2.64583,-0.794 -1.85208,-1.587 h -0.26459 v 0.793 l -2.91041,-2.381 m -1.4994,0.441 0.0884,0.176 -0.0884,-0.176 m 4.40981,0.617 0.26459,0.265 -0.26459,-0.265 m 65.88126,1.323 v 1.059 h 0.26458 l -0.26458,-1.059 m -0.52917,0.529 -0.26458,1.853 0.26458,-1.853 m -51.32917,0.794 0.26458,0.265 -0.26458,-0.265 m 0.52917,0 0.26458,0.265 -0.26458,-0.265 m 15.875,0.529 v 0.265 h -0.79375 l 0.79375,-0.265 m -16.40417,0.265 v 1.058 h 0.26458 l -0.26458,-1.058 m 5.29167,0 v 0.265 h 0.79375 l -0.79375,-0.265 m -4.7625,0.265 0.26458,0.264 -0.26458,-0.264 m 7.40833,0 v 0.264 h -0.79375 l 0.79375,-0.264 m -11.28898,0.441 0.0884,0.176 -0.0884,-0.176 m 53.8869,-0.177 -0.26458,1.058 0.79375,-1.058 h -0.52917 m -55.5625,0.265 -0.26459,0.264 0.26459,-0.264 m 11.90625,0.09 c 0.20452,0 0.0423,0.132 -0.0881,0.09 l 0.0881,-0.09 m 42.59792,2.293 -1.85209,2.381 0.79375,0.529 1.05834,-2.91 m -2.11667,3.175 -1.32292,2.117 -1.05833,-0.265 0.52917,0.794 -0.52917,1.058 c 1.3073,-0.343 3.04985,-2.371 2.38125,-3.704 m -1.32292,2.91 -0.26458,0.265 0.26458,-0.265 m -1.05833,1.323 0.26458,0.265 -0.26458,-0.265 m -0.52917,0.529 -1.5875,0.265 -0.52916,0.794 0.26458,1.058 -0.52917,-0.264 -0.26458,1.852 c 1.21893,-0.417 2.49687,-2.448 2.64583,-3.705 m -86.51875,2.911 c 0.70194,1.625 1.92458,3.465 3.70417,3.969 l -1.32292,-2.117 0.52917,0.265 v -0.265 h -0.79375 l 0.26458,-0.794 -0.79375,-0.794 h -0.26458 v 0.53 h -0.26459 l -0.26458,-1.059 -0.79375,0.265 m 19.31458,-0.265 -1.05833,5.557 h -0.26458 l -0.26459,-1.588 h -0.26458 v 1.058 l -0.52917,-0.529 v 1.588 h -0.26458 l -0.26458,-1.588 -1.05834,-1.323 h -1.85208 l 0.52917,5.292 -1.32292,0.265 0.26458,1.587 3.70417,-1.323 -0.52917,-0.794 c 1.29673,-0.576 1.89416,-0.78 3.175,0 l 0.79375,-0.529 -0.52916,0.794 v 0.265 l 1.05833,-0.794 1.05833,0.264 v 0.53 l -0.79375,0.793 c 1.25043,0 2.39554,0.119 2.64584,-1.323 h 0.26458 l 1.05833,1.588 v -0.529 c 1.49755,0.976 2.77654,0.636 4.23334,-0.265 0.43259,0.849 1.57136,1.575 1.85208,0.265 l 0.79375,0.529 c 1.97247,-0.71 3.48642,-1.105 5.55625,-0.529 l -0.26458,-0.794 1.05833,0.265 0.26458,-0.794 c 1.7833,1.044 4.74795,-0.714 6.35,-1.588 l 0.26459,1.059 3.175,0.264 -4.49792,-2.646 c -2.6162,1.432 -6.73629,1.34 -8.99583,-0.793 l -0.79375,0.529 -0.52917,-0.529 h -0.26458 v 0.529 h -0.52917 l -4.23333,-2.646 c -3.43482,1.91 -5.90921,-1.442 -8.99584,-2.117 m -18.52083,0.529 -0.26458,0.265 0.26458,-0.265 m 17.4625,0.794 0.26458,0.265 -0.26458,-0.265 m -8.99583,0.265 0.52916,0.529 v -0.529 h -0.52916 m 10.58333,0 -0.26458,0.264 0.26458,-0.264 m -9.26042,0.264 0.26459,0.265 -0.26459,-0.265 m 7.58481,0.09 0.17622,0.09 -0.17622,-0.09 m 7.14376,0.264 0.17621,0.09 -0.17621,-0.09 m -7.58482,0.441 v 0.265 l 0.79375,0.264 v -0.793 l -0.79375,0.264 m 35.71875,-0.264 v 0.529 l 0.52917,-0.529 h -0.52917 m -42.59791,0.264 0.26458,0.265 -0.26458,-0.265 m 68.61519,0.177 0.0884,0.176 -0.0884,-0.176 m -27.07561,0.352 -1.5875,0.794 c 0.74295,0.477 2.26245,0.33 1.5875,-0.794 m 25.4,0.529 v 1.059 h 0.26459 l 0.26458,-1.059 h -0.52917 m -77.25833,0.265 0.52916,0.529 v -0.529 h -0.52916 m 20.10833,0.09 0.0881,0.09 c -0.13044,0.04 -0.29263,-0.09 -0.0881,-0.09 m -1.5875,0.177 v 0.793 h -0.26458 l 0.26458,-0.793 m 13.22917,0 -0.26459,0.264 0.26459,-0.264 m 15.61041,0.529 0.26459,1.323 1.05833,-1.059 1.85208,0.53 -0.79375,-1.323 -2.38125,0.529 m 28.83959,-0.529 v 0.529 l 0.52917,-0.529 h -0.52917 m -31.75,0.793 v 1.059 l 0.79375,-0.794 1.05833,0.265 0.26458,-1.059 -2.11666,0.529 m -41.01042,-0.264 v 0.529 h 0.52917 v -0.529 h -0.52917 m 13.75833,0.264 v 1.323 h -0.26458 l 0.26458,-1.323 m 2.11667,0 0.26458,0.53 h -0.52916 l 0.26458,-0.53 m -16.93333,5.027 h 0.52916 v -1.058 l 0.79375,0.265 c -0.20928,0.592 -0.43021,1.058 0.26459,1.058 l -0.52917,1.323 0.79375,1.058 -1.05833,-0.793 h -0.26459 l -0.52916,0.529 v 1.852 l 2.11666,0.794 v 1.322 h 0.26459 v -0.529 h 0.26458 l 0.52917,1.323 h -0.52917 l -0.26458,1.323 0.79375,0.794 -1.05834,-0.265 0.26459,2.382 1.05833,-0.265 c -1.50177,1.702 -0.71808,3.376 -0.79375,5.556 h -0.26458 v -2.91 h -0.26459 c 0,0.976 0.44609,3.258 -0.79375,3.439 l 1.32292,1.323 h -1.05833 l -2.11667,1.059 -0.79375,-0.53 h -0.26458 l -0.79375,0.53 0.52916,-1.059 -1.32291,1.588 v -1.588 c -1.67587,0.473 -3.23586,-0.522 -3.175,-2.381 -1.7108,-2.261 1.20967,-4.426 2.38125,-6.085 -8.52779,3.605 -14.74867,8.632 -21.43522,15.071 -1.89468,1.825 -5.16599,2.886 -6.34603,5.302 -1.65233,-0.241 -6.25369,0.746 -6.87917,2.381 l 1.5875,0.794 -1.32292,0.529 0.26459,-1.059 h -0.26459 l -0.79375,0.265 0.26459,1.058 -1.32292,-1.058 0.52917,0.794 -0.26459,0.264 -0.79375,-1.323 h 1.85209 v -0.264 l -5.55731,-0.937 -10.31769,1.201 v 1.059 l 1.05833,-0.794 c 3.04377,0.704 5.92005,0.251 8.99187,0.339 1.53961,0.04 2.32727,-0.68 3.70813,0.455 -0.45217,-0.08 -0.92578,-0.02 -0.26458,0.264 v 0.265 l -2.91042,-0.529 -0.26458,0.793 0.79375,0.794 -0.79375,-0.529 -1.32292,1.058 c 1.19354,0.157 1.39303,1.665 1.5875,2.646 l -0.52917,0.794 -3.96875,-0.529 v -0.265 -1.587 l -0.79375,1.587 c -0.84931,-0.341 -1.27661,-0.502 -1.85208,0.265 v 1.323 l 1.05833,-0.265 1.32292,2.117 -1.32292,0.264 c -0.58472,-1.59 -2.62625,-1.815 -3.43958,-0.264 h -0.26458 -0.26459 c -0.37491,-0.667 -0.65696,-0.386 -0.79375,0.264 l -0.79375,-0.264 v 0.264 h 1.32292 l -0.26458,0.794 0.79375,0.265 -0.79375,1.323 v 0.264 0.265 l 0.52916,0.529 c -1.07791,-0.08 -1.52452,0.156 -2.11666,1.058 l 0.79375,0.265 v 0.264 h -1.5875 v -0.264 l 0.26458,-0.794 c 2.09868,-1.042 -0.18097,-3.204 -0.52917,-1.587 h -0.26458 c 0,-0.889 0.18944,-1.641 -0.79375,-1.852 l 0.26458,1.852 -0.79375,-1.059 h -0.26458 v 1.059 h -1.05833 v 0.264 c 0.64981,0.654 0.68924,1.032 0.26458,1.852 l 1.05833,0.794 0.52917,-1.587 c 0.28416,1.193 0.15822,4.243 2.11667,2.91 l 0.26458,0.794 -1.05833,0.264 0.26458,0.794 -1.05833,1.323 c -0.95277,-0.482 -1.32451,0.146 -1.5875,1.058 h -0.26459 v -0.529 h -0.26458 c -0.52096,0.786 -0.94721,0.603 -1.5875,0 l -0.52917,1.058 -1.32291,0.265 -1.05834,-0.529 0.79375,-2.117 -1.5875,0.529 0.79375,-1.587 -1.32291,0.794 v 1.058 l -1.5875,-0.529 v 1.323 l -1.05834,-0.265 v 0.265 l 0.52917,0.264 -1.32292,0.794 v 0.265 l 1.32292,1.058 h -2.11667 v -1.058 h -0.52916 l 0.52916,1.058 v 0.265 h -2.11666 v 0.793 h -2.11667 v 0.265 h 2.11667 v 1.058 l -4.23334,0.794 1.32292,1.058 v 0.265 c -0.78713,-0.06 -1.21391,-0.371 -1.32292,0.529 h -0.26458 l -0.52917,-0.794 v 1.059 l -0.79375,-1.059 h -0.26458 v 1.059 h -0.26458 v -0.53 h -0.26459 v 1.059 h -0.26458 v -1.323 h -0.52917 v 1.852 l -0.79375,-0.265 0.52917,0.794 c -1.15358,0.341 -2.21721,2.257 -3.175,0.794 h -0.26458 l -0.79375,2.91 -1.05834,-0.529 0.26459,1.323 -1.85209,0.265 v 0.264 l 1.85209,-0.264 -0.79375,0.793 1.05833,0.794 c -0.79375,0.783 -1.3716,0.622 -2.38125,0.265 l 0.52917,-0.794 -2.38125,1.058 v 0.265 h 1.32291 l -1.32291,0.794 0.79375,1.587 c -1.26789,0.36 -1.9939,0.778 -3.175,0 l -0.79375,0.529 v 0.265 l 1.32291,0.529 h -1.5875 l 0.26459,2.381 -1.05834,-0.264 -1.05833,1.323 h 0.26458 l 0.79375,-0.53 0.26459,1.059 h 0.26458 v -1.059 h 0.52917 l -0.52917,2.117 -1.32292,-0.264 0.52917,0.793 -1.5875,-0.264 -0.26458,2.116 0.79375,0.265 v 0.265 l -0.79375,1.322 -0.26459,-1.852 h -1.5875 v 0.265 l -1.32291,3.704 -0.26459,-0.794 -1.05833,0.53 0.26458,-0.53 -2.11666,1.059 v 0.264 h 0.79375 l -0.52917,1.059 h 1.5875 v 0.264 l -1.85208,1.059 -0.26459,-0.794 -3.43958,1.058 v 0.265 c 0.90673,0.288 1.09458,0.645 1.05833,1.587 l 1.05834,0.265 -0.52917,0.529 0.52917,1.058 h -0.26459 l -0.79375,-1.058 -0.26458,0.265 c 0.009,1.084 -1.15596,1.934 -1.32292,0.529 l -0.79375,0.264 v -1.058 h -0.26458 l -0.52917,0.794 0.79375,1.323 h 1.5875 l -2.64583,0.793 -0.26458,1.323 -1.05834,0.529 0.79375,-0.264 c -1.06203,1.442 -2.55243,-1.5 -4.03307,-0.257 -0.72009,0.604 -0.0461,1.797 -0.51609,2.556 -0.50552,0.812 -2.32969,2.328 -3.12375,2.993 l 0.26458,-0.53 -1.05833,0.265 0.26458,1.323 -0.52917,-0.529 -0.26458,0.264 1.05833,1.323 -0.79375,0.265 0.52917,1.058 -2.64583,-0.264 -0.26459,0.793 h -0.26458 l 0.26458,-1.852 -0.79375,0.794 v 3.175 l -2.91041,-0.265 c -0.004,1.379 0.44574,3.959 -0.79375,4.763 l 0.26458,-1.323 h -0.26458 v 1.058 h -0.26459 v -3.175 h -0.26458 v 2.646 h -0.26458 v -2.117 l -2.38125,0.265 v 0.265 l 0.26458,0.529 1.85208,1.323 h -0.26458 l -1.32292,-0.529 0.52917,1.058 -0.79375,0.794 1.05833,-0.794 -0.52916,1.587 1.05833,1.323 -0.26458,-0.793 1.05833,-0.265 -0.26458,1.852 -1.05834,-0.265 -0.26458,1.323 -0.26458,-0.793 h -0.26459 l -0.26458,1.852 h -0.26458 v -1.852 h -0.26459 v 0.793 l -0.79375,-1.058 1.05834,-0.529 -1.32292,0.264 0.26458,-0.793 -1.32291,-0.529 0.79375,1.322 -2.91042,-0.529 0.52917,0.794 v 0.265 l -0.52917,1.323 h -0.26458 l -0.79375,-0.53 1.05833,1.323 v 0.265 l -0.79375,0.794 h 1.05833 l -1.05833,1.058 0.79375,0.794 v 0.264 l -0.26458,1.059 h -1.05834 l 1.32292,2.645 -1.5875,0.265 -0.52917,-1.852 h -0.26458 l 0.26458,1.058 -0.52916,-2.116 h -0.26459 v 2.116 h -0.26458 v -2.116 h -0.26458 l -0.52917,2.381 v -2.911 h 1.05833 l -0.26458,-0.793 -1.32292,0.264 -0.26458,1.323 0.79375,0.794 -2.38125,-0.265 0.52917,0.794 -0.52917,3.704 v 7.938 31.75 h 302.154173 v -87.842 -23.019 c 0,-2.407 0.873125,-6.993 -0.529167,-8.995 l 0.529167,-0.265 -0.529167,-0.265 0.529167,-0.793 -2.38125,-0.265 -2.38125,0.529 v -2.381 h -0.264583 v 2.117 h -0.264584 v -2.117 l -4.7625,1.587 -1.058333,-1.058 0.529167,0.794 -0.79375,-0.794 h -1.5875 l 0.529166,0.794 -2.645833,0.264 v 0.53 l -1.322913,-0.265 c 0.082,1.376 -0.81492,4.858 -2.38125,2.381 l -0.79375,0.265 v -0.529 l -0.79375,0.264 v -1.852 l 0.79375,0.265 v -2.117 h -0.26459 l -0.79375,0.794 v -0.265 l -0.26458,-1.058 -1.5875,1.058 v 0.265 l 0.79375,0.794 -0.52917,-0.53 c -1.14829,0.416 -1.69333,-0.298 -2.11666,-1.322 l 0.52916,-0.794 -1.05833,0.264 -1.05834,-0.793 -0.79375,1.852 0.26459,2.381 h -0.26459 v -1.058 h -0.26458 l -0.52917,2.116 h -0.26458 l -0.79375,-0.264 c -0.003,-0.852 0.1561,-1.733 -0.79375,-1.852 v -1.323 l -1.5875,-0.794 0.79375,0.529 v -2.91 h -0.79375 l -0.26458,1.323 h -0.26459 l 0.26459,-1.059 -1.05834,0.265 0.26459,0.794 h -1.05834 v 0.264 h 1.32292 l -1.05833,2.381 h -0.26459 l -0.26458,-3.704 v -0.264 l -2.91042,-0.265 c -0.13494,-0.656 -0.15875,-0.68 -0.79375,-0.529 v -1.058 h -0.26458 v 1.852 h -0.26458 v -1.588 l -1.05834,-0.264 0.52917,-0.794 -0.79375,-0.794 -1.32292,0.529 0.52917,1.059 v 0.264 l -1.05833,-0.794 h -1.5875 v -0.264 l 1.05833,-0.529 -6.61458,-0.265 v 0.265 l 1.5875,0.264 v 0.265 l -2.11667,-0.265 -0.26458,0.794 -0.79375,-0.265 -1.05834,1.059 0.52917,-2.117 1.05833,0.529 -0.52916,-3.175 h -1.32292 l 0.52917,0.529 v 0.265 h -0.79375 v 0.265 h 0.79375 v 0.264 h -2.11667 v 0.265 l 0.79375,0.264 -3.43958,-1.587 v 2.91 h -0.26459 l -0.79375,-2.91 h -0.26458 v 1.587 h -0.26458 v -1.587 l -1.85209,-0.794 1.32292,0.529 v -2.381 h -0.26458 l -0.26459,1.323 -1.05833,-0.529 v 1.323 c -0.69321,-0.442 -2.07539,-2.485 -2.38125,-1.059 h -0.26458 v -2.645 h -0.26459 l -0.52916,2.381 0.26458,-2.117 h -0.26458 v 1.588 h -0.26459 v -1.588 h -0.26458 v 1.588 l -1.5875,-0.794 0.79375,0.529 -0.26458,0.794 c -0.65326,-0.397 -0.88186,-0.537 -1.05834,0.264 h -0.26458 l -0.52917,-0.793 v 1.058 h -0.26458 l -0.26458,-0.794 h -0.26459 v 2.117 h -0.26458 v -2.117 h -0.26458 v 1.323 h -0.26459 l -1.32291,-0.794 v -0.264 h 1.32291 v -0.265 l -2.11666,-0.529 v -0.265 h 1.05833 v -0.264 l -3.70417,-0.265 -1.32291,1.059 0.26458,-2.382 -1.5875,-0.264 v -0.529 h 1.05833 v -0.265 l -0.79375,-0.529 1.05834,0.264 0.52916,-1.058 -0.79375,0.529 -0.52916,-1.587 h -0.26459 v 1.058 h -0.52916 v -1.058 l -1.85209,0.264 v -0.264 l 0.79375,-0.265 -0.79375,-0.264 v -0.265 l 2.11667,0.529 v -0.264 l -1.05833,-0.265 v -0.265 h 0.79375 v -0.264 l -1.5875,0.264 -0.79375,-1.587 -0.26459,1.587 0.79375,-1.852 v -0.264 l -0.79375,-0.529 0.79375,0.264 v -1.058 h -1.32291 l 0.26458,-2.381 h -0.79375 v -0.265 l 0.26458,-2.117 h -1.05833 l 0.52917,-0.793 h -1.05834 c -0.0754,-1.137 -0.34343,-2.806 -1.32291,-3.44 v -3.175 h 0.26458 l 0.26458,0.794 h 0.52917 l 0.26458,-1.323 h -2.11666 l -0.79375,-0.529 v 0.264 c 2.07089,2.194 0.22992,6.924 2.38125,9.261 v 0.264 l -0.52917,2.117 -0.52917,-0.265 -0.26458,3.175 -0.79375,-0.264 0.26458,0.794 -0.79375,0.264 0.26459,1.323 -2.11667,1.058 v 1.588 h -0.26458 l -0.79375,-1.588 v 2.382 l -2.11667,-0.265 -1.32292,1.323 h -0.26458 l -0.79375,2.381 -1.32292,1.323 -0.79375,-0.264 0.26459,1.322 c -0.87551,0.106 -1.34673,0.162 -1.5875,1.059 l -0.52917,-0.265 -0.52917,0.529 -2.11666,2.382 0.26458,0.793 -3.175,1.588 -0.79375,-0.794 0.26458,1.058 -0.52916,-0.529 h -0.26459 l 0.26459,1.323 h -1.32292 c -0.34528,-0.55 -0.57706,-0.778 -1.05833,-0.264 l 0.52916,0.793 -1.5875,-0.529 v 0.265 l 1.05834,0.264 -0.26459,0.794 -1.5875,-0.794 v 2.382 l -0.52917,-1.852 h -0.26458 l -0.52917,2.381 0.79375,-4.234 h -0.26458 l -0.26458,0.794 v -1.058 l -0.79375,0.794 -1.05834,-0.265 v 1.058 h -0.26458 v -1.587 h -0.26458 v 1.587 h -0.26459 l -0.79375,-0.264 v -1.588 h -0.52916 l 0.26458,1.588 -0.79375,-1.588 -0.79375,0.529 0.26458,-0.793 -2.38125,-0.794 v 1.058 h -0.26458 l -1.05833,-2.381 h -2.38125 l 0.52916,-1.058 -2.64583,-0.529 v -0.265 h 1.05833 v -0.265 l -1.85208,-0.529 -0.26458,0.794 h -2.64584 v -1.058 h -0.26458 v 0.529 h -0.26458 c -0.22596,-1.056 -1.18772,-0.794 -2.11667,-0.794 l 0.26458,-1.323 1.85209,-0.529 -0.26459,0.794 h 0.79375 v -0.265 -0.794 l 1.32292,0.265 h 0.26458 v 1.323 c 1.05675,-0.667 1.8722,-1.373 1.32292,-2.646 l 0.52917,0.265 v -0.265 -2.646 h 0.26458 l 0.52917,3.704 v -1.852 l 1.05833,0.794 -1.05833,-1.587 1.32291,-0.265 0.52917,1.323 v -1.588 l -1.5875,0.265 -0.26458,-0.794 2.64583,-1.058 v -0.265 h -0.52917 v -0.264 h 1.05834 l -0.26459,-0.794 1.32292,0.529 0.79375,-2.646 -1.32292,0.265 v -1.323 h -1.5875 v -1.058 h -0.26458 v 1.058 l -1.85208,-1.588 h -0.26459 v 0.794 h -0.26458 v -1.323 l 0.52917,0.265 v -1.852 l 0.79375,0.264 0.26458,-0.793 0.79375,0.529 h 0.26458 l -0.52916,-1.588 1.5875,-0.793 0.79375,0.264 4.7625,-2.381 c 0.30083,-1.042 1.09749,-1.384 2.11666,-1.588 v -0.264 h -0.52916 v -0.265 l 3.43958,-1.587 -0.26458,-0.794 1.5875,-0.265 -0.79375,-0.793 h 1.05833 l 1.85209,-3.175 -0.52917,0.529 h -0.26458 l -0.79375,-0.265 c -0.85302,-1.163 -1.8886,-0.204 -2.38126,0.794 l 0.52917,0.794 c -0.68289,-0.511 -1.58221,-1.548 -1.85208,-0.265 l -0.79375,0.529 c -1.13692,-0.682 -2.98979,-0.689 -3.70417,0.529 l -6.87917,1.552 -6.87916,-0.229 v -0.529 c -3.22474,0.693 -3.90393,-0.08 -6.87917,-0.794 l 0.52917,-0.529 c -0.37968,-2.013 -0.88927,-3.411 -2.91042,-4.233 l -0.52917,2.117 -0.26458,0.529 -1.32292,0.264 0.26459,0.794 c -1.35731,0 -4.20979,-0.623 -3.96875,-1.587 -1.59491,-0.05 -2.08095,-0.856 -2.91042,-2.117 l -2.38125,-0.529 0.26458,-1.323 h -0.26458 l -1.5875,-0.265 -0.79375,0.265 v -1.852 l -0.79375,0.264 -1.85208,-1.058 v 0.265 l 1.05833,0.264 v 0.794 l -1.85208,0.794 v 0.264 l 1.05833,2.646 h -1.05833 l -2.64584,-1.323 c 0,1.603 -2.37569,-0.325 -0.79375,-0.529 v -0.265 h -1.05833 v -0.264 l 1.05833,-0.265 -0.52916,-0.529 v -0.264 h 1.5875 l 1.05833,1.058 c 0,-1.039 -0.29607,-2.323 0.52917,-2.117 v -0.264 l -0.79375,-0.265 v 2.381 h -0.26459 l -5.29166,-3.968 -0.52917,0.264 c -0.68739,-1.42 -1.84123,-2.398 -3.175,-1.323 -0.0907,-0.66 -2.99482,-2.683 -3.26072,-1.529 -0.24263,1.054 1.25253,2.748 1.40864,3.91 m 44.18541,-4.497 0.26459,0.264 -0.26459,-0.264 m -28.83958,0.529 -0.26458,0.264 0.26458,-0.264 m 0.79375,0 -0.26458,0.264 0.26458,-0.264 m -2.64583,0.264 1.05833,0.265 v 0.529 l -0.79375,0.265 -0.52917,-0.794 0.26459,-0.265 m -0.52917,0.265 v 0.529 h -0.52917 v -0.529 h 0.52917 m 0,1.058 v 0.529 h -0.52917 v -0.529 h 0.52917 m -12.96458,0.265 -0.26459,0.264 0.26459,-0.264 m 14.02291,0.529 h 1.32292 -1.32292 m -11.37708,-0.265 -0.26458,0.265 0.26458,-0.265 m 32.54375,0 -0.26458,0.265 0.26458,-0.265 m -31.22083,0.265 v 0.265 h -0.79375 l 0.79375,-0.265 m 8.46666,0.09 0.0881,0.09 c -0.13043,0.04 -0.29262,-0.09 -0.0881,-0.09 m 3.43959,-0.09 0.26458,0.265 -0.26458,-0.265 m -4.23334,0.265 v 0.529 h -0.79375 v -0.529 h 0.79375 m 15.52232,0.441 -0.0884,0.176 0.0884,-0.176 m -3.35148,0.09 v 0.264 h -0.79375 l 0.79375,-0.264 m -21.69584,0.529 -0.26458,0.264 0.26458,-0.264 m 10.05417,0 v 0.794 l 0.79375,-0.265 v -0.265 l -0.79375,-0.264 m -12.43542,0.529 0.26459,0.265 -0.26459,-0.265 m 9.78959,0 0.26458,0.265 -0.26458,-0.265 m 17.4625,0 0.26458,0.265 -0.26458,-0.265 m -10.58334,0.265 0.26459,0.264 -0.26459,-0.264 m -15.875,0.264 v 0.794 h 0.26459 l -0.26459,-0.794 m 9.4369,0.09 0.17621,0.09 -0.17621,-0.09 m 0.61727,-0.09 v 0.794 h 0.26458 l -0.26458,-0.794 m 1.5875,0 v 0.794 h 0.26458 l -0.26458,-0.794 m 53.18125,0.265 -0.26458,0.794 0.26458,-0.794 m -53.62231,0.705 0.0884,0.177 -0.0884,-0.177 m -3.52769,0.09 -0.26458,0.264 0.26458,-0.264 m 0.52917,0.529 v 0.264 h -0.79375 l 0.79375,-0.264 m 1.32291,0.264 0.26459,1.059 h 0.26458 l -0.52917,-1.059 m 1.85209,0 0.26458,0.265 -0.26458,-0.265 m -9.78959,0.794 -0.79375,-0.529 0.79375,0.529 m 62.97084,1.852 -2.11667,1.058 1.85209,1.059 0.26458,-0.794 3.96875,-2.646 c -1.14168,-2.015 -2.5191,1.039 -3.96875,1.323 m -52.56398,-1.94 0.0884,0.176 -0.0884,-0.176 m 2.29314,0.09 -0.26458,0.265 0.26458,-0.265 m -13.75833,0.265 -0.26458,0.264 0.26458,-0.264 m 0.79375,0.529 -0.26458,0.264 0.26458,-0.264 m 10.05417,0 -0.26459,0.529 h 0.52917 l -0.26458,-0.529 m 2.91041,0.264 -0.26458,0.265 0.26458,-0.265 m 50.44732,0.353 0.17621,0.09 -0.17621,-0.09 m -42.8625,1.588 0.17621,0.09 -0.17621,-0.09 m -20.28482,0.176 0.26459,0.265 -0.26459,-0.265 m 57.94376,0.265 v 0.264 h -0.79375 l 0.79375,-0.264 m 2.91041,0.529 1.05834,0.794 v -0.265 l -1.05834,-0.529 m -32.80833,0.264 0.79375,1.059 -1.32292,-0.265 v -0.529 l 0.52917,-0.265 m -1.05834,0.265 v 0.265 h -0.79375 l 0.79375,-0.265 m 31.75001,0.794 v 0.264 l -0.79375,0.529 -0.52917,-1.322 1.32292,0.529 m -59.79584,-0.265 v 1.323 h 0.52917 v -1.323 h -0.52917 m 49.1244,0.882 0.17621,0.09 -0.17621,-0.09 m 34.48394,0.176 1.5875,1.323 0.26458,-1.058 -1.85208,-0.265 m 2.38125,0.794 c 0.50006,1.232 2.02803,3.008 3.43958,2.911 l 0.26458,0.793 0.79375,-0.529 v 1.059 l 2.38125,1.058 v 0.264 l -0.52916,0.53 1.85208,0.264 -0.26458,0.794 h 1.32291 l -0.52916,1.058 h 0.26458 l 3.43958,0.265 v 0.264 h -0.79375 v 0.265 l 2.64584,-0.265 c 1.13903,0.911 3.06784,2.097 4.49791,1.323 0.77364,1.193 1.96242,0.508 3.175,0.567 3.03371,0.15 6.29179,1.309 9.26042,0.227 1.30387,1.492 7.72107,0.851 8.99583,-0.529 h 0.26459 5.55625 l 1.05833,1.323 -0.26458,1.058 1.32291,0.794 -0.52916,0.794 v 0.264 0.265 l 1.32291,2.381 v 0.265 h -0.52916 v 0.264 l 1.85208,0.529 0.26458,-0.793 h 0.26459 l 0.26458,0.793 h 0.52917 l 0.26458,-0.264 v -0.529 l -2.71463,-2.127 -1.78329,-2.636 c 1.00013,-2.501 -2.54794,-3.668 -4.49791,-3.353 -6.37408,1.028 -12.67963,0.829 -19.05,0.223 -3.57453,-0.34 -6.8834,-0.171 -10.31875,-1.534 -4.78394,-1.898 -8.35687,-7.056 -13.49375,-8.036 m -83.87292,0.353 0.0881,0.09 c -0.13044,0.04 -0.29262,-0.09 -0.0881,-0.09 m 41.80416,0.441 -0.26458,0.265 0.26458,-0.265 m -1.5875,0.265 v 0.264 h -1.32291 l 1.32291,-0.264 m -42.8625,0.264 v 0.529 h 0.52917 l -0.52917,-0.529 m 3.175,0.529 v 0.529 h -0.52916 v -0.529 h 0.52916 m -0.26458,1.323 v 1.059 h -0.26458 l 0.26458,-1.059 m -7.67292,1.323 v 0.265 h 1.05834 l -1.05834,-0.265 m 7.67292,0 -0.26458,0.265 0.26458,-0.265 m -3.43958,0.529 1.05833,1.323 -1.05833,-1.323 m 3.175,0 v 1.059 h -0.26459 l 0.26459,-1.059 m 81.49167,0.265 0.26458,0.264 -0.26458,-0.264 m -83.07917,0.529 0.26458,0.265 -0.26458,-0.265 m 82.99106,0.706 -0.0884,0.176 0.0884,-0.176 m -84.84315,0.617 1.32292,0.794 -0.52917,-1.059 -0.79375,0.265 m 3.43959,-0.265 -0.26459,0.265 0.26459,-0.265 m -1.05834,0.353 c 0.20453,0 0.0423,0.132 -0.0881,0.09 l 0.0881,-0.09 m -17.72708,0.441 -0.26458,0.265 0.26458,-0.265 m 100.0125,0 -0.26458,0.265 0.26458,-0.265 m -80.69792,0.265 v 0.529 h -0.52916 v -0.529 h 0.52916 m -20.10833,0.529 -0.26458,0.264 0.26458,-0.264 m 19.84375,0.529 -0.26458,0.265 0.26458,-0.265 m 100.54167,0.265 v 0.529 h -0.52917 l 0.52917,-0.529 m -107.42084,0.529 -0.52916,0.529 v -0.529 h 0.52916 m -14.02291,1.323 -0.26459,0.264 0.26459,-0.264 m 61.38333,0 -0.26458,0.264 0.26458,-0.264 m 39.42292,0 -0.26458,0.264 0.26458,-0.264 m -38.98186,0.441 -0.0884,0.176 0.0884,-0.176 m 2.29288,0 0.0884,0.176 -0.0884,-0.176 m 1.05833,0.264 0.0884,0.177 -0.0884,-0.177 m -1.5875,0.265 0.0884,0.176 -0.0884,-0.176 m 39.77588,0 -0.0884,0.176 0.0884,-0.176 m 1.14644,-0.177 -0.26459,0.265 0.26459,-0.265 m 46.30208,0 0.26458,0.265 -0.26458,-0.265 m -151.34167,0.265 -0.26458,0.265 0.26458,-0.265 m 62.44167,0.265 -0.26459,0.264 0.26459,-0.264 m -66.675,0.793 -0.26459,0.265 0.26459,-0.265 m -0.52917,0.53 v 0.529 h -0.52917 l 0.52917,-0.529 m 110.94852,0.441 0.0884,0.176 -0.0884,-0.176 m 0.44107,-0.177 0.26458,0.265 -0.26458,-0.265 m -111.91876,0.529 -1.05833,1.323 1.05833,-1.323 m 114.56459,0.529 0.26458,0.265 -0.26458,-0.265 m 42.59792,0 0.26458,0.265 -0.26458,-0.265 m -155.04584,0.265 -0.26458,0.265 0.26458,-0.265 m 114.56459,0 0.26458,0.265 -0.26458,-0.265 m -43.12709,0.529 -0.26458,0.529 h 0.52916 l -0.26458,-0.529 m 10.05417,0 -0.26458,0.529 h 0.52916 l -0.26458,-0.529 m -9.96606,0.97 0.0884,0.177 -0.0884,-0.177 m 38.54106,-0.176 v 0.529 h -1.32292 l 1.32292,-0.529 m 4.49792,0 0.52916,0.529 v -0.529 h -0.52916 m -118.00417,0.529 v 0.265 h -1.05834 l 1.05834,-0.265 m 116.68125,0 v 0.529 h 0.52917 l -0.52917,-0.529 m 9.43689,0.09 0.17622,0.09 -0.17622,-0.09 m -126.91189,0.441 c -0.74719,1.641 -2.8157,2.421 -4.23334,1.059 0.93451,-0.331 1.47744,-0.622 2.11667,0.264 h 0.26458 v -1.058 l 0.79375,-0.529 1.05834,0.264 m 71.96666,-0.264 -0.52916,0.529 0.52916,-0.529 m 43.65626,0.09 c 0.20452,0 0.0423,0.132 -0.0881,0.09 l 0.0881,-0.09 m 49.2125,-0.09 1.32292,1.587 h 0.26458 0.26458 v -0.529 h 0.26459 0.26458 l 2.91042,1.323 3.175,-0.138 8.466663,0.86 3.439583,0.865 h 1.322917 v -0.264 l -0.79375,-0.265 1.322917,-0.529 v -0.264 c -4.61698,0 -9.450917,-0.516 -14.02292,-1.173 -2.1246,-0.304 -4.90537,-1.442 -6.87916,-0.415 l -1.32292,-1.058 m -93.92709,0.264 -0.26458,0.265 0.26458,-0.265 m 47.09584,0.265 0.26458,0.264 -0.26458,-0.264 m 7.76102,0.177 0.0884,0.175 -0.0884,-0.175 m 0.70564,-0.177 v 0.529 h 0.79375 v -0.529 h -0.79375 m 1.14644,0.177 0.0884,0.175 -0.0884,-0.175 m -56.70894,0.175 c 0.20452,0 0.0423,0.132 -0.0881,0.09 l 0.0881,-0.09 m 0.79375,-0.09 -0.26458,0.265 0.26458,-0.265 m 32.54375,0 -0.26458,0.265 0.26458,-0.265 m 0.52917,0 -0.26458,0.265 0.26458,-0.265 m 59.79584,0 0.26458,0.265 -0.26458,-0.265 m -169.15687,0.707 -0.0884,0.175 0.0884,-0.175 m 108.03811,-0.177 -0.26458,0.264 0.26458,-0.264 m 23.19523,0.09 0.17621,0.09 -0.17621,-0.09 m -130.88065,2.294 -0.79375,-0.529 -1.85208,1.058 0.52917,-0.529 -0.52917,-0.794 c 1.23561,-0.479 2.5654,-1.029 2.64583,0.794 m 120.38542,-1.588 v 0.794 h -0.26458 l -0.26458,-0.794 h 0.52916 m -14.02291,0.265 v 1.058 l -1.85209,0.794 1.32292,-1.852 h 0.52917 m 79.110416,0.09 c 0.203729,0 0.04233,0.133 -0.08731,0.09 l 0.08731,-0.09 m -78.052086,0.178 -0.52917,0.529 0.52917,-0.529 m 13.75833,0 v 1.058 h 0.26459 l -0.26459,-1.058 m 27.51667,0 v 1.587 h -0.26458 v -1.058 l -1.05834,1.058 h -0.26458 l -0.52917,-0.529 v 2.117 h 0.26459 l 0.26458,-1.323 h 0.26458 c 0,1.156 -0.75168,2.489 0.26459,3.175 l -2.11667,1.058 v 0.265 h 1.32292 v -0.265 h -0.52917 v -0.265 l 2.64583,-0.529 v 0.265 h -1.05833 v 0.264 l 2.11667,0.265 -0.52917,-1.323 h -1.05833 v -0.265 h 1.5875 c -0.11774,-1.479 -1.04061,-1.669 -2.38125,-1.852 l 1.32291,-0.793 -0.26458,-1.852 m 42.068753,0.529 v 0.264 l 3.175,0.265 v -0.794 l -3.175,0.265 m -44.714583,-0.265 0.26458,0.265 -0.26458,-0.265 m 1.32291,0 0.26459,0.265 -0.26459,-0.265 m -147.90208,0.265 0.26458,0.264 -0.26458,-0.264 m 74.34791,0 -0.26458,0.264 0.26458,-0.264 m 56.88542,0 -0.26458,0.529 h 0.52917 l -0.26459,-0.529 m -11.1125,0.264 -0.26458,0.265 0.26458,-0.265 m 0.70565,0.178 -0.0884,0.174 0.0884,-0.174 m -125.58898,0.174 c 0.20452,0 0.0423,0.133 -0.0881,0.09 l 0.0881,-0.09 m 151.34167,-0.09 v 2.117 h 0.26458 l -0.26458,-2.117 m 2.11666,0 -0.26458,0.794 h -0.26458 l 0.52916,-0.794 m -153.9875,1.058 -0.52917,-0.529 -0.79375,0.529 c 0.56939,-0.569 0.81386,-0.651 1.32292,0 m 193.93959,-0.794 0.264583,0.265 -0.264583,-0.265 m 0.529166,0 0.264584,0.265 -0.264584,-0.265 m -66.145836,0.265 1.05833,0.265 v 0.264 l -1.05833,0.529 h -0.26458 l 0.26458,-1.058 m 2.11667,0 -0.26459,0.265 0.26459,-0.265 m 1.85208,0 0.26458,0.265 -0.26458,-0.265 m -134.9375,0.265 -0.26459,0.264 0.26459,-0.264 m 130.175,0 v 0.529 h -0.52917 v -0.529 h 0.52917 m 9.26042,0 -0.26459,0.264 0.26459,-0.264 m 0.52916,0 v 0.793 h -0.26458 l 0.26458,-0.793 m 60.060423,0 0.264583,0.264 -0.264583,-0.264 m -195.791673,0.529 -0.26458,0.264 0.26458,-0.264 m 79.99227,0.177 0.0884,0.175 -0.0884,-0.175 m 48.77171,0 -0.0884,0.175 0.0884,-0.175 m -135.90773,0.09 v 0.265 h -1.05833 l 1.05833,-0.265 m 141.2875,0 -0.52916,0.53 v -0.53 h 0.52916 m 0.97023,0.178 -0.0884,0.174 0.0884,-0.174 m 2.73394,-0.178 -0.52917,0.53 v -0.53 h 0.52917 m -161.925,1.852 0.79375,-0.793 c 0.97922,0.153 1.80234,0.28 2.11666,-0.794 -1.26947,0.235 -2.65139,0.09 -2.91041,1.587 m 163.24792,-1.587 0.26458,0.265 -0.26458,-0.265 m 2.38125,0 v 0.265 h 1.05833 l -1.05833,-0.265 m 5.82083,0 v 0.794 h 0.26458 l -0.26458,-0.794 m -150.28334,0.265 1.85209,0.264 v 0.265 l -2.11667,-0.265 0.26458,-0.264 m 80.9625,0 0.79375,0.793 -0.79375,-0.793 m 52.38751,0 v 0.264 h -0.79375 l 0.79375,-0.264 m 21.69583,0 0.26458,0.529 -0.26458,-0.529 m -177.27084,0.264 -0.26458,1.058 0.79375,-1.058 h -0.52917 m 97.10209,0 -0.26459,0.265 0.26459,-0.265 m 82.02083,0 -1.85208,0.794 v -0.265 l 1.32292,-0.529 h 0.52916 m -162.71875,0.265 0.26458,0.264 -0.26458,-0.264 m 81.93273,0.09 0.17621,0.09 -0.17621,-0.09 m 55.65061,-0.09 -0.26459,0.264 0.26459,-0.264 m 3.70416,0 v 0.793 h -0.26458 l 0.26458,-0.793 m 3.43959,0 -0.52917,0.529 0.52917,-0.529 m 5.29166,0 0.26459,0.264 -0.26459,-0.264 m 0.97023,0.09 0.17621,0.09 -0.17621,-0.09 m -171.62648,1.765 v 0.264 l 1.5875,-1.058 c 0.9099,0.151 1.35361,0 1.85208,-0.794 l -3.43958,1.588 m 7.9375,-1.588 0.26458,0.265 -0.26458,-0.265 m 14.55208,0.09 c 0.20453,0 0.0423,0.132 -0.0881,0.09 l 0.0881,-0.09 m 2.38125,-0.09 v 0.529 h -0.52916 v -0.529 h 0.52916 m 2.38125,0 -0.26458,0.265 0.26458,-0.265 m 1.5875,0 -0.26458,0.265 0.26458,-0.265 m 78.49315,0.09 0.17621,0.09 -0.17621,-0.09 m 51.68186,-0.09 v 0.794 h -0.26459 l 0.26459,-0.794 m 0.52916,0 0.26459,2.382 h -0.26459 v -2.382 m 6.61459,0 -0.26459,1.059 0.26459,-1.059 m -148.96042,0.265 v 0.794 h 0.52916 v -0.794 h -0.52916 m 140.22917,0 -0.26459,0.264 0.26459,-0.264 m 12.43541,0.529 v 0.265 l -2.11666,0.529 c 0.3765,-1.117 1.0787,-1.164 2.11666,-0.794 m 6.08542,-0.529 0.26458,0.264 -0.26458,-0.264 m -159.54375,0.264 -1.32292,2.117 1.05833,-0.529 0.26459,1.323 -0.79375,-0.265 0.26458,0.794 1.05833,-0.265 -0.52916,-3.175 m 5.82083,0 v 0.265 l -1.32292,0.265 v 0.264 l 3.175,-0.529 -3.175,0.794 0.26459,1.852 c -1.64439,-1.228 -0.79349,-2.85 1.05833,-2.911 m 136.26042,0 -0.26458,0.265 0.26458,-0.265 m 2.55773,0.178 -0.0884,0.174 0.0884,-0.174 m 20.46102,-0.178 -0.26458,0.265 0.26458,-0.265 m -20.90208,0.265 -0.26459,0.265 0.26459,-0.265 m 12.7,0 -0.26459,1.588 h -0.26458 l 0.52917,-1.588 m 1.85208,0 v 0.265 h 1.05833 l -1.05833,-0.265 m -147.99019,0.442 -0.0884,0.175 0.0884,-0.175 m 76.2,0 -0.0884,0.175 0.0884,-0.175 m 58.56102,-0.177 v 0.529 h -0.52916 l 0.52916,-0.529 m 4.93898,0.177 -0.0884,0.175 0.0884,-0.175 m -5.82083,0.265 -0.0884,0.174 0.0884,-0.174 m -2.11667,0.264 -0.0884,0.175 0.0884,-0.175 m 1.67561,-0.177 -0.26459,0.264 0.26459,-0.264 m 11.02439,0.177 -0.0884,0.175 0.0884,-0.175 m 5.11519,-0.177 -0.79375,0.794 0.26458,-0.794 h 0.52917 m 0.52917,0 -0.26459,0.264 0.26459,-0.264 m 7.14375,0 -0.79375,1.323 c 0.87524,-0.154 1.2565,-0.482 0.79375,-1.323 m 1.05833,0 0.26458,0.264 -0.26458,-0.264 m -187.325,1.323 h 0.26458 l 1.05833,-0.794 c -0.7694,-0.212 -1.06944,0.07 -1.32291,0.794 m 20.6375,-1.059 -0.26459,0.265 0.26459,-0.265 m 9.26041,0 -0.26458,0.265 0.26458,-0.265 m 138.64167,0 -0.26458,0.265 0.26458,-0.265 m 4.49792,0.794 h -0.26458 l -0.26459,-0.529 c -0.29818,0.532 -0.49556,0.532 -0.79375,0 l -1.05833,0.529 c -0.47413,-1.257 1.93066,-0.817 2.38125,0 m 2.91042,-0.794 -0.26459,0.265 0.26459,-0.265 m -156.89792,0.265 v 0.794 l 0.52916,-0.794 h -0.52916 m 7.9375,0 -0.26459,0.265 0.26459,-0.265 m 79.55148,0.177 -0.0884,0.175 0.0884,-0.175 m 1.14643,-0.177 -0.52916,1.058 h -0.26459 l 0.26459,-1.058 h 0.52916 m 68.79167,0 -0.26458,0.265 0.26458,-0.265 m 2.38125,0.09 c 0.20453,0 0.0423,0.133 -0.0881,0.09 l 0.0881,-0.09 m 3.88065,0 0.17621,0.09 -0.17621,-0.09 m 11.46519,-0.09 0.26458,0.265 -0.26458,-0.265 m -195.52709,0.265 v 0.529 l 0.52917,-0.529 h -0.52917 m 165.1,0.09 0.0881,0.09 c -0.13044,0.04 -0.29263,-0.09 -0.0881,-0.09 m 6.08542,-0.09 -0.26458,0.264 0.26458,-0.264 m 22.75417,0 0.26458,0.264 -0.26458,-0.264 m 0.97102,0.09 0.17462,0.09 -0.17462,-0.09 m -197.02728,0.971 1.32292,-0.529 -1.32292,0.529 m 17.4625,-0.529 v 0.264 l 1.05834,0.265 -0.26459,-0.794 -0.79375,0.265 m 122.23751,-0.265 -0.26459,0.265 0.26459,-0.265 m -145.52084,0.794 v 0.264 l 5.29167,-0.264 h -5.29167 m 171.97917,-0.442 c 0.20452,0 0.0423,0.132 -0.0881,0.09 l 0.0881,-0.09 m 1.32292,-0.09 v 0.264 h -0.79375 l 0.79375,-0.264 m 14.19939,0.177 -0.0884,0.175 0.0884,-0.175 m 13.58186,-0.177 0.26458,0.264 -0.26458,-0.264 m 0.52916,0 0.52917,0.529 v -0.529 h -0.52917 m 1.85209,0 0.26458,0.264 -0.26458,-0.264 m -196.05626,0.264 0.26459,0.265 -0.26459,-0.265 m 164.04167,0 -0.26458,0.265 0.26458,-0.265 m 7.67292,0.09 c 0.20452,0 0.0423,0.132 -0.0881,0.09 l 0.0881,-0.09 m 0.79375,-0.09 -0.26458,0.265 0.26458,-0.265 m 4.23333,0 -0.26458,0.265 0.26458,-0.265 m -11.37708,0.352 c 0.20452,0 0.0423,0.133 -0.0881,0.09 l 0.0881,-0.09 m 10.05417,-0.09 -0.26459,0.264 0.26459,-0.264 m -157.16251,0.264 0.26459,0.53 h -0.52917 l 0.26458,-0.53 m 166.42292,0 -0.26458,0.265 0.26458,-0.265 m 8.99584,0 0.26458,0.265 -0.26458,-0.265 m 0.70643,0.09 0.17463,0.09 -0.17463,-0.09 m 0.79375,0 0.17463,0.09 -0.17463,-0.09 m -204.17102,0.177 v 0.265 h 0.79375 l -0.79375,-0.265 m 1.5875,0 0.26458,0.265 -0.26458,-0.265 m 188.38334,0 0.26458,0.265 -0.26458,-0.265 m 10.84791,0 0.52917,0.265 v 0.264 l -0.52917,-0.529 m 4.41061,0.09 0.17462,0.09 -0.17462,-0.09 m -81.93353,0.178 -0.26458,0.264 0.26458,-0.264 m 1.32292,0 v 1.058 h -0.26458 l -0.26459,-1.058 h 0.52917 m 62.17709,0 -0.26459,0.264 0.26459,-0.264 m 17.4625,0 0.26458,0.264 -0.26458,-0.264 m -206.11042,0.264 v 0.794 h 0.52916 v -0.794 h -0.52916 m 194.46875,0.529 -0.79375,-0.529 0.79375,0.529 m 5.55625,-0.529 v 1.059 h -0.26458 l 0.26458,-1.059 m 1.05833,0 v 0.529 h -0.79375 v -0.529 h 0.79375 m 2.64584,0 v 0.794 h -0.26459 l 0.26459,-0.794 m -204.78751,0.265 -0.26458,0.529 0.26458,-0.529 m 2.64584,0 0.26458,0.264 -0.26458,-0.264 m 189.61814,0.177 -0.0884,0.175 0.0884,-0.175 m 11.72978,0.617 -1.05834,-0.53 1.05834,0.53 m 3.26231,-0.617 0.09,0.175 -0.09,-0.175 m 29.546023,-0.177 0.529167,0.529 v -0.529 h -0.529167 m -46.302083,0.264 v 0.265 h -0.79375 l 0.79375,-0.265 m 0.79375,0 v 0.53 h -0.52917 l 0.52917,-0.53 m 17.81439,0.178 0.09,0.174 -0.09,-0.174 m -177.09356,0.09 v 0.265 h -0.79375 l 0.79375,-0.265 m 111.91875,0 0.26458,0.265 -0.26458,-0.265 m -144.99167,0.265 v 0.529 h 0.52917 v -0.529 h -0.52917 m 27.51667,0 v 0.793 h 0.26458 l -0.26458,-0.793 m 0.61727,0.177 0.0884,0.174 -0.0884,-0.174 m 2.29314,0.352 -0.79375,-0.529 0.79375,0.529 m 160.07292,-0.529 v 0.529 h -0.52916 l 0.52916,-0.529 m 15.34584,0 v 0.529 l -0.52917,-0.529 h 0.52917 m -178.77023,0.441 0.0884,0.175 -0.0884,-0.175 m 164.21814,-0.177 0.26459,0.265 -0.79375,0.529 0.52916,-0.794 m 17.72709,0 0.26458,0.794 -0.26458,-0.794 m 24.693562,0.177 0.08996,0.175 -0.08996,-0.175 m -209.108152,0.09 0.26458,0.264 -0.26458,-0.264 m 8.20208,0.09 c 0.20453,0 0.0423,0.132 -0.0881,0.09 l 0.0881,-0.09 m 4.7625,-0.09 -0.52916,0.529 0.52916,-0.529 m 152.13542,0 -0.26458,0.264 0.26458,-0.264 m 16.93334,0 -0.26459,0.264 0.26459,-0.264 m -209.63811,0.352 0.17621,0.09 -0.17621,-0.09 m 1.32291,0 0.17622,0.09 -0.17622,-0.09 m 1.32292,0 0.17621,0.09 -0.17621,-0.09 m 130.52769,-0.09 -0.26458,0.265 0.26458,-0.265 m 2.11667,0 v 0.529 h -0.52917 v -0.529 h 0.52917 m 69.32083,0 -0.26458,0.265 0.26458,-0.265 m 12.17084,0 v 1.059 h -0.26459 l 0.26459,-1.059 m -74.78898,0.442 0.0884,0.175 -0.0884,-0.175 m 67.11606,-0.177 v 0.794 h -0.52917 v -0.794 h 0.52917 m 4.84981,0.177 0.09,0.175 -0.09,-0.175 m 3.35227,-0.177 v 1.323 h 0.26459 l -0.26459,-1.323 m 0.61648,0.177 0.09,0.175 -0.09,-0.175 m -219.95606,0.09 0.26458,0.265 -0.26458,-0.265 m 26.72291,0.53 0.79375,-0.53 -0.79375,0.53 m 105.30417,-0.53 -0.26458,0.265 0.26458,-0.265 m 7.9375,0 0.26458,0.265 -0.26458,-0.265 m 72.76042,0.794 -1.05833,-0.794 1.05833,0.794 m -175.41875,-0.529 -0.26459,0.265 0.26459,-0.265 m 100.80625,0 v 1.058 h -0.26459 l 0.26459,-1.058 m 75.93542,0 -0.26459,0.265 0.26459,-0.265 m 20.6375,0 0.529166,0.794 -0.529166,-0.794 m -42.59792,0.265 -0.26458,0.264 0.26458,-0.264 m 27.86856,0.177 0.09,0.175 -0.09,-0.175 m -200.11231,0.616 0.79375,-0.529 -0.79375,0.529 m 16.66875,-0.529 -0.26459,0.265 0.26459,-0.265 m 100.18898,0.178 -0.0884,0.174 0.0884,-0.174 m 0.61727,-0.09 c 0.20452,0 0.0423,0.132 -0.0881,0.09 l 0.0881,-0.09 m 4.23333,-0.09 v 0.794 h 0.26458 l 1.05834,-0.529 -0.26459,2.646 h -0.26458 v -2.117 l -0.79375,0.265 v -1.059 m 76.64186,0.178 -0.09,0.174 0.09,-0.174 m 0.52916,0 -0.09,0.174 0.09,-0.174 m -225.0731,0.09 v 0.264 h 2.38125 l -2.38125,-0.264 m 30.42708,0 -0.52917,0.264 v 0.265 l 0.52917,-0.529 m 191.82292,0.264 v 0.265 h -1.85208 v 1.852 l -0.79375,-0.265 0.52916,-0.529 v -0.264 l -0.52916,-0.794 2.64583,-0.265 m 10.84792,-0.264 v 0.264 h 0.79375 l -0.79375,-0.264 m 6.35,0 v 0.264 l 1.322916,0.53 0.264584,-0.794 h -1.5875 m -207.96251,0.264 0.26459,0.265 -0.26459,-0.265 m 6.87917,0 v 0.53 l -0.52917,-0.53 h 0.52917 m 1.85208,0 -0.26458,0.265 0.26458,-0.265 m 3.43959,0 -0.26459,0.265 0.26459,-0.265 m 110.33125,0 v 0.265 h -1.05833 l 1.05833,-0.265 m -9.78959,0.265 -0.26458,0.265 0.26458,-0.265 m 8.37857,0.177 -0.0884,0.175 0.0884,-0.175 m 71.43829,0 -0.09,0.175 0.09,-0.175 m 5.82084,0 -0.09,0.175 0.09,-0.175 m 2.73314,-0.177 0.26459,0.265 -0.26459,-0.265 m 3.175,0 0.26459,0.265 -0.26459,-0.265 m 5.556253,0 0.264583,0.265 -0.264583,-0.265 m 2.823104,0.09 0.174625,0.09 -0.174625,-0.09 m 3.262313,-0.09 0.264583,0.265 -0.264583,-0.265 m -215.54732,0.442 0.0884,0.174 -0.0884,-0.174 m 8.37856,-0.177 0.26459,0.529 h -0.52917 l 0.26458,-0.529 m 179.12292,0 -0.26458,0.264 0.26458,-0.264 m 26.722923,0 v 0.264 h 0.79375 l -0.79375,-0.264 m 3.881437,0.177 -0.08996,0.174 0.08996,-0.174 m -103.62936,0.09 -0.26458,0.265 0.26458,-0.265 m 94.456256,0 -0.264583,0.794 0.264583,-0.794 m -209.814586,0.265 0.79375,0.529 v -0.265 l -0.79375,-0.264 m 117.21041,0 0.26459,1.323 h -0.26459 v -1.323 m 75.40626,0 -0.26459,1.323 h -0.26458 l 0.52917,-1.323 m 6.26269,0.177 -0.09,0.175 0.09,-0.175 m 0.61648,-0.177 -0.26459,0.264 0.26459,-0.264 m 10.847913,0 v 0.529 h 0.529167 l -0.529167,-0.529 m -247.650003,0.264 0.26458,0.265 -0.26458,-0.265 m 44.71458,0 -0.26458,0.265 0.26458,-0.265 m 197.90834,0 0.26458,0.265 -0.26458,-0.265 m 0.61648,0.178 0.09,0.174 -0.09,-0.174 m 6.791853,-0.09 c 0.203729,0 0.04233,0.132 -0.08731,0.09 l 0.08731,-0.09 m 3.96875,-0.09 c -0.801688,1.075 -2.852208,1.842 -3.704167,0.529 l 3.704167,-0.529 m 2.38125,0.794 h -0.264583 l -1.5875,-0.265 c 0.756708,-0.563 1.325562,-0.542 1.852083,0.265 m -30.691673,-0.529 -0.26458,0.264 0.26458,-0.264 m 6.61459,0 -0.26459,0.264 0.26459,-0.264 m -3.43959,0.264 -0.26458,0.265 0.26458,-0.265 m -194.46875,0.794 h 0.79375 l -0.26458,-0.529 -0.52917,0.529 m 1.76398,-0.442 0.17621,0.09 -0.17621,-0.09 m 200.11311,-0.09 0.26458,0.794 -0.26458,-0.794 m 5.82083,0 -0.26458,0.265 0.26458,-0.265 m -198.17292,0.265 -0.26458,0.264 0.26458,-0.264 m 107.59731,0.177 -0.0884,0.175 0.0884,-0.175 m 75.49436,-0.177 v 0.529 h -0.52917 v -0.529 h 0.52917 m 1.76477,0.177 -0.09,0.175 0.09,-0.175 m 1.41023,-0.177 -0.26458,0.264 0.26458,-0.264 m 3.43958,0 0.26459,0.264 -0.26459,-0.264 m 3.96876,0 0.26458,0.793 -0.26458,-0.793 m 1.32291,0 -0.26458,1.323 h -0.26458 v -1.323 h 0.52916 m 0.97102,0.177 -0.09,0.175 0.09,-0.175 m 0.52917,0 -0.09,0.175 0.09,-0.175 m -206.81686,0.09 1.05833,0.794 -0.52916,0.794 2.38125,0.529 v -0.265 l -2.91042,-1.852 m 123.56042,0 -0.26458,0.265 0.26458,-0.265 m 79.81686,0.178 -0.09,0.174 0.09,-0.174 m 4.05606,-0.178 0.26458,0.529 h -0.52916 l 0.26458,-0.529 m -205.58126,0.529 1.05834,0.53 -0.52917,-0.794 -0.52917,0.264 m 197.64376,-0.264 v 0.794 h -0.26459 l 0.26459,-0.794 m 14.816666,0.09 c 0.203729,0 0.04233,0.132 -0.08731,0.09 l 0.08731,-0.09 m 1.852084,-0.09 -0.264584,0.264 0.264584,-0.264 m 2.38125,0 v 0.264 l -1.322917,0.265 v -0.529 h 1.322917 m 8.466666,0 -0.264583,0.264 0.264583,-0.264 m -106.097926,0.264 v 0.53 h -0.52916 v -0.53 h 0.52916 m 75.14167,0 -0.26458,0.265 0.26458,-0.265 m 3.96875,0 v 0.53 h 0.52917 l -0.52917,-0.53 m 8.55399,0.178 0.09,0.174 -0.09,-0.174 m 12.3481,-0.178 -0.264584,0.265 0.264584,-0.265 m 1.500187,0.178 -0.08996,0.174 0.08996,-0.174 m 2.203979,-0.178 v 0.53 l -0.529166,-0.53 h 0.529166 m -217.840196,0.442 -0.0884,0.175 0.0884,-0.175 m 195.87978,-0.177 -0.26459,0.265 0.26459,-0.265 m 1.05833,0 -0.52916,0.794 v -0.794 h 0.52916 m 3.61686,0.177 -0.09,0.175 0.09,-0.175 m 18.078976,-0.09 0.08731,0.09 c -0.129646,0.04 -0.291042,-0.09 -0.08731,-0.09 m -110.860426,0.178 -0.26458,0.264 0.26458,-0.264 m 3.70417,0 0.52917,1.322 -0.52917,-1.322 m 83.34375,0.09 c 0.20373,0 0.0423,0.132 -0.0873,0.09 l 0.0873,-0.09 m 5.29167,-0.09 -0.26458,0.264 0.26458,-0.264 m 8.46667,0 v 0.264 h -1.058334 l 1.058334,-0.264 m 0.79375,0 -0.264584,0.264 0.264584,-0.264 m -207.16876,0.264 v 0.529 h -0.52916 l 0.52916,-0.529 m 0.79375,0.09 c 0.20453,0 0.0423,0.133 -0.0881,0.09 l 0.0881,-0.09 m 208.227093,0 0.08731,0.09 c -0.129645,0.04 -0.291041,-0.09 -0.08731,-0.09 m -218.016673,0.178 1.05833,0.529 v -0.265 l -1.05833,-0.264 m 201.34792,0 v 0.793 h -0.26458 l 0.26458,-0.793 m 1.32292,0 -0.52917,0.529 0.52917,-0.529 m 19.84375,0 -0.264584,0.264 0.264584,-0.264 m -219.07501,0.264 v 0.529 h 0.52917 l -0.52917,-0.529 m 1.85209,0 v 1.059 h 0.26458 l -0.26458,-1.059 m 0.97022,0.178 -0.0884,0.174 0.0884,-0.174 m 113.06519,-0.09 0.0881,0.09 c -0.13044,0.04 -0.29262,-0.09 -0.0881,-0.09 m 84.13751,-0.09 -0.26458,0.265 0.26458,-0.265 m 14.552083,0.09 c 0.203729,0 0.04233,0.132 -0.08731,0.09 l 0.08731,-0.09 m 7.408333,0 c 0.203729,0 0.04233,0.132 -0.08731,0.09 l 0.08731,-0.09 m -9.789583,0.177 v 0.264 h -1.322917 l 1.322917,-0.264 m 0.529167,0 -0.264584,0.264 0.264584,-0.264 m -214.04792,0.529 -0.52917,3.44 h 0.26458 v -2.117 h 0.26459 v 2.117 l 2.38125,-2.382 v -0.264 l -1.05834,-0.265 c -0.4445,-0.672 -0.558,-0.77 -1.32291,-0.529 m 0.44106,0.177 -0.0884,0.175 0.0884,-0.175 m 1.76371,0 0.0884,0.175 -0.0884,-0.175 m 211.84315,-0.177 -0.264584,0.265 0.264584,-0.265 m -216.07648,0.707 0.0884,0.174 -0.0884,-0.174 m 7.32022,-0.178 -0.52916,1.059 h -0.26459 v -1.059 h 0.79375 m 0.79375,0 -0.26458,0.265 0.26458,-0.265 m -10.58333,0.265 -0.79375,1.058 0.26458,0.265 h 0.26459 l 0.26458,-0.265 v -1.058 m 7.14375,0 c 0.29607,0.69 0.61939,0.812 0.79375,0 h -0.79375 m -3.96875,0.264 0.26458,0.265 -0.26458,-0.265 m 7.67292,0 -0.26459,0.265 0.26459,-0.265 m 0.44106,0.178 -0.0884,0.174 0.0884,-0.174 m 192.44019,-0.178 -0.26458,0.265 0.26458,-0.265 m -201.08334,0.265 -0.26458,0.794 0.26458,-0.794 m 0.79375,0.794 -0.52916,0.529 0.26458,2.91 h 1.05833 v -0.264 l -0.79375,-3.175 m -0.97022,0.706 0.0884,0.175 -0.0884,-0.175 m -2.29288,0.175 0.17621,0.09 -0.17621,-0.09 m 4.05685,1.235 h 0.79375 l -0.26458,-0.529 -0.52917,0.529 m -6.08541,0.265 0.26458,0.265 -0.26458,-0.265 m -2.38125,0.265 v 0.264 l 1.5875,0.265 v -0.265 l -1.5875,-0.264 m 4.23333,0.264 0.26458,0.794 -0.26458,-0.794 m 0.79375,0.265 -0.26458,0.264 0.26458,-0.264 m -1.5875,0.264 -0.26458,0.529 h -0.26459 l -0.26458,-0.529 h 0.79375 m -5.02708,0.529 v 0.53 h 1.05833 v -0.53 h -1.05833 m 8.46666,1.059 -1.05833,-0.794 1.05833,0.794 m -8.46666,0 0.79375,0.529 v -0.265 l -0.79375,-0.264 m -4.40981,1.235 0.0884,0.175 -0.0884,-0.175 m -0.17622,0.969 0.17622,0.09 -0.17622,-0.09 m 1.67561,0.177 v 0.265 h 0.79375 l -0.79375,-0.265 m -2.11667,1.323 v 0.529 h 0.52917 v -0.529 h -0.52917 m 5.20356,0.706 -0.0884,0.175 0.0884,-0.175 m -8.37856,0.617 v 1.323 h 0.26459 l -0.26459,-1.323 m 2.11667,1.323 v 0.794 h -0.26458 l 0.26458,-0.794 m 1.05833,0 0.26459,1.323 h -0.26459 v -1.323 m -0.52916,0.529 -0.26459,0.265 0.26459,-0.265 m -4.49792,0.794 -0.26458,0.264 v 0.265 0.264 l 0.79375,-0.793 h -0.52917 m 3.175,0.529 v 0.264 h -1.32292 l 1.32292,-0.264 m 2.11667,0.264 -0.26459,0.265 0.26459,-0.265 m -4.7625,1.323 v 0.53 h -1.5875 l 0.52916,-0.794 1.05834,0.264 m -5.46815,2.03 0.0884,0.174 -0.0884,-0.174 m 0.70565,3.262 v 0.265 h -0.79375 l 0.79375,-0.265 m -3.26311,0.352 0.17621,0.09 -0.17621,-0.09 m 2.20477,-0.09 -0.26458,0.264 0.26458,-0.264 m 0.44106,1.235 -0.0884,0.175 0.0884,-0.175 m -1.49939,1.41 -0.79375,1.059 0.26458,-0.794 -1.5875,0.265 v -0.265 l 1.05834,-0.529 1.05833,0.264 m -2.38125,0.794 v 0.529 h -0.52917 v -0.529 h 0.52917 m -1.85208,0.529 0.26458,0.265 -0.26458,-0.265 m 2.38125,0 1.05833,0.53 -0.26458,0.264 -1.05834,-0.529 0.26459,-0.265 m 0,0.53 v 0.793 l -0.52917,-0.264 v -0.265 l 0.52917,-0.264 m -4.14523,0.441 0.0884,0.175 -0.0884,-0.175 m 0.52917,0 0.0884,0.175 -0.0884,-0.175 m 4.40981,0.09 0.26458,1.587 -2.11667,-0.264 v -0.265 l 0.79375,-0.265 0.79375,0.53 0.26459,-1.323 m -5.02709,0.529 0.26459,0.264 -0.26459,-0.264 m 0,0.529 0.26459,0.265 -0.26459,-0.265 m 3.96875,1.323 c -0.63394,0.151 -0.65801,0.127 -0.79375,-0.529 l 0.79375,0.529 m -2.20477,0.706 -0.0884,0.175 0.0884,-0.175 m 1.14644,-0.177 0.52917,0.794 c -0.59558,-0.124 -0.82497,-0.228 -0.52917,-0.794 m -2.38125,0.617 0.0881,0.09 c -0.13044,0.04 -0.29263,-0.09 -0.0881,-0.09 m -2.91042,1.235 1.85209,-0.794 -1.85209,0.794 m 3.96875,-0.529 -0.52916,0.529 v -0.529 h 0.52916 m -8.73125,3.44 0.26459,0.264 -0.26459,-0.264 m 5.82084,0 0.26458,0.793 -0.26458,-0.793 m 1.32291,0 -0.26458,0.264 0.26458,-0.264 m -2.99852,0.442 -0.0884,0.174 0.0884,-0.174 m -2.02856,1.41 v 0.529 l -0.52917,-0.529 h 0.52917 m -0.26458,2.646 v 0.529 h -0.52917 v -0.529 h 0.52917 m -2.20478,2.029 -0.0884,0.175 0.0884,-0.175 m -0.44106,0.09 -0.52916,2.117 0.52916,-2.117 m -4.67439,0.971 0.0884,0.175 -0.0884,-0.175 m -0.61727,0.09 0.26458,0.264 -0.26458,-0.264 m 5.73272,0.177 -0.0884,0.174 0.0884,-0.174 m -5.73272,0.352 0.26458,0.264 -0.26458,-0.264 m 4.23333,0 -0.26458,0.264 0.26458,-0.264 m -9.87777,1.41 0.17637,0.09 -0.17637,-0.09 m 0.70554,0.09 0.0882,0.175 -0.0882,-0.175 m 5.46806,-0.177 0.26459,0.264 -0.26459,-0.264 m -5.55625,0.793 0.26459,0.265 -0.26459,-0.265 m 3.35148,0.881 0.17621,0.09 -0.17621,-0.09 m 1.41102,1.765 0.26459,1.059 h -0.26459 l -0.26458,-0.53 -1.05833,0.53 v -0.265 l 1.32291,-0.794 m 0.79375,0 v 1.323 h -0.26458 l 0.26458,-1.323 m 0.70565,0.178 -0.0884,0.174 0.0884,-0.174 m -4.6744,0.351 -0.52916,1.323 1.5875,0.265 h -2.11667 l 1.05833,-1.588 m 4.6744,0.707 -0.0884,0.174 0.0884,-0.174 m -11.0244,3.791 0.26459,0.265 -0.26459,-0.265 m -1.94027,0.881 0.17638,0.09 -0.17638,-0.09 m 4.32152,0.178 -0.26458,0.264 0.26458,-0.264 m -3.43958,0.529 v 0.529 h 0.52917 v -0.529 h -0.52917 m 2.91042,0.352 0.0882,0.09 c -0.13057,0.04 -0.29281,-0.09 -0.0882,-0.09 m 1.05833,-0.09 -0.26458,1.323 h -0.26459 l 0.52917,-1.323 m -6.08542,0.53 0.26459,0.264 -0.26459,-0.264 m 4.7625,0.264 -0.26458,1.058 h -0.26458 l 0.52916,-1.058 m -7.14375,1.058 0.79375,-0.529 -0.79375,0.529 m 3.70417,-0.529 v 1.852 h -0.26458 l 0.26458,-1.852 m 0.52917,0 -0.26459,0.265 0.26459,-0.265 m 1.85208,0.09 0.0882,0.09 c -0.13058,0.04 -0.29282,-0.09 -0.0882,-0.09 m -1.94027,0.883 -0.0882,0.175 0.0882,-0.175 m -4.40973,0.352 v 0.529 l 0.52917,-0.529 h -0.52917 m -0.79375,0.794 0.26458,0.265 -0.26458,-0.265 m 2.38125,1.058 -0.79375,-0.264 0.79375,0.264 m 1.32292,0.265 -0.26459,0.264 0.26459,-0.264 m -3.175,0.529 0.26458,0.265 -0.26458,-0.265 m -1.32292,0.265 -0.26458,0.264 0.26458,-0.264 m 4.49792,1.058 -0.26459,0.265 0.26459,-0.265 m -6.61459,0.794 v 0.793 h 0.26459 l -0.26459,-0.793 m 2.38125,2.381 h -0.79375 l 0.26459,-0.529 0.52916,0.529 m -3.70416,0 v 0.265 l 1.05833,-0.265 0.26458,1.058 c 0.35137,-1.034 -0.44751,-1.172 -1.32291,-1.058 m 2.11666,0.265 -0.26458,1.587 0.26458,-1.587 m 2.64584,0.793 -0.26459,0.265 0.26459,-0.265 m -5.29167,0.794 0.52917,0.794 -0.52917,-0.794 m -3.88056,0.442 0.0882,0.175 -0.0882,-0.175 m 7.84931,-0.177 -0.26458,0.264 0.26458,-0.264 m -10.40694,0.352 0.17638,0.09 -0.17638,-0.09 m 1.5875,0.793 0.17638,0.09 -0.17638,-0.09 m 5.90902,-0.09 v 0.529 h -0.52916 v -0.529 h 0.52916 m -6.96735,0.352 0.17637,0.09 -0.17637,-0.09 m 1.4111,0.177 -0.26458,0.265 0.79375,1.058 h 0.26458 l -0.79375,-1.323 m 3.43959,1.323 v 1.058 h -0.26459 l 0.26459,-1.058 m -1.05834,3.175 -0.26458,0.265 0.26458,-0.265 m -6.61458,0.265 0.26458,0.264 -0.26458,-0.264 m 6.5264,0.706 -0.0882,0.175 0.0882,-0.175 m -4.9389,0.352 0.26458,0.529 h -0.52916 l 0.26458,-0.529 m 0.70556,0.706 -0.0882,0.175 0.0882,-0.175 m 4.85069,0.352 -0.26458,0.265 0.26458,-0.265 m 1.05833,0 -0.26458,0.265 0.26458,-0.265 m -6.87916,0.265 v 0.794 h -0.26459 l 0.26459,-0.794 m 2.64583,0.264 -0.52917,1.059 0.52917,1.323 -1.5875,-0.794 0.52917,1.058 -1.32292,-0.529 v -0.264 l 0.79375,-0.265 -0.26458,-1.058 h 0.26458 l 0.79375,0.529 0.26458,-1.059 h 0.52917 m 4.23333,0.265 v 0.794 h -0.26458 l 0.26458,-0.794 m -2.38125,0.265 v 0.529 h -0.52916 v -0.529 h 0.52916 m -4.05694,0.442 -0.0882,0.174 0.0882,-0.174 m 2.64584,0.264 -0.0882,0.175 0.0882,-0.175 m -2.55765,1.939 -0.26458,0.53 h -0.26458 l -0.26459,-0.53 h 0.79375 m 178.32917,14.817 v 0.529 l -0.52917,-0.529 z"
       id="path816" /></g></svg>
